<svg width="32" height="32" viewBox="0 0 32 32" fill="none" xmlns="http://www.w3.org/2000/svg">
<path d="M16 0C18.0977 0 20.1013 0.403842 21.937 1.13777C21.9431 1.14018 21.9493 1.14269 21.9554 1.14511C22.0269 1.17334 22.0982 1.20227 22.1693 1.23152C22.1983 1.24343 22.2271 1.25559 22.256 1.26766C22.2967 1.28468 22.3374 1.30167 22.378 1.31902C22.4167 1.33559 22.4554 1.35242 22.494 1.36929C22.5371 1.38809 22.58 1.40718 22.6228 1.42636C22.646 1.43672 22.6693 1.44686 22.6924 1.45734C22.7457 1.48148 22.7989 1.50598 22.8519 1.53071C22.8775 1.54262 22.903 1.55453 22.9285 1.56658C22.9981 1.59941 23.0674 1.63274 23.1364 1.66658C23.1621 1.67914 23.1875 1.69219 23.2131 1.70489C23.2548 1.72564 23.2967 1.74627 23.3383 1.76739C23.3725 1.78471 23.4065 1.80227 23.4405 1.81984C23.4859 1.84327 23.5312 1.86689 23.5764 1.89076C23.6005 1.9035 23.6246 1.91621 23.6486 1.92908C23.7007 1.95692 23.7526 1.98516 23.8044 2.01359C23.8257 2.02531 23.8472 2.03682 23.8685 2.04864C23.9325 2.08417 23.9962 2.12036 24.0598 2.15679C24.0942 2.17652 24.1285 2.19658 24.1628 2.21658C24.2027 2.23983 24.2426 2.26307 24.2823 2.28668C24.306 2.30072 24.3295 2.31492 24.353 2.32908C24.4011 2.35801 24.4492 2.38712 24.497 2.41658C24.5234 2.43282 24.5498 2.44908 24.5761 2.46549C24.6165 2.49071 24.6568 2.51626 24.697 2.54185C24.7235 2.55872 24.7502 2.57536 24.7766 2.59239C24.8432 2.63524 24.9093 2.67868 24.9753 2.72255C24.9992 2.73846 25.0229 2.75461 25.0467 2.77065C25.0892 2.79922 25.1315 2.82807 25.1736 2.85707C25.2046 2.87833 25.2355 2.8997 25.2663 2.9212C25.3027 2.94659 25.3391 2.97211 25.3753 2.99783C25.4022 3.01692 25.4292 3.03589 25.456 3.05516C25.5217 3.10246 25.5873 3.15029 25.6525 3.19864C26.6527 3.94182 28.3863 5.70044 29.0821 6.67853C29.5031 7.2698 30.1973 8.52293 30.5696 9.30489C30.5818 9.33047 30.5934 9.35563 30.6049 9.38016C30.6252 9.42352 30.6444 9.46515 30.6622 9.50489C30.673 9.52882 30.6828 9.55224 30.6927 9.57473C30.7087 9.61153 30.7238 9.64619 30.7372 9.6788C30.7537 9.7189 30.7684 9.75552 30.7804 9.78859C30.7839 9.79802 30.7869 9.80721 30.79 9.81603C30.793 9.82479 30.796 9.83317 30.7986 9.8413C30.802 9.85177 30.8049 9.86179 30.8076 9.87119C30.8098 9.87861 30.8118 9.88566 30.8136 9.89239C30.8157 9.9004 30.8173 9.90793 30.8188 9.91495C30.82 9.92083 30.821 9.92635 30.8217 9.93152C30.8228 9.93834 30.8231 9.94447 30.8234 9.95C30.8237 9.95608 30.8241 9.96129 30.8234 9.96576C30.8233 9.96612 30.8234 9.9665 30.8234 9.96685C31.266 11.0532 31.5927 12.1992 31.788 13.3894C31.7886 13.391 31.7889 13.3929 31.7894 13.3946C31.7957 13.4154 31.8019 13.4396 31.8082 13.4668C31.8431 13.6198 31.8766 13.8698 31.9054 14.1715C31.9067 14.1846 31.9077 14.1978 31.909 14.2111C31.9233 14.3653 31.9368 14.5321 31.9484 14.7057C31.9826 15.1326 32 15.5643 32 16C32 16.0202 31.9995 16.0404 31.9995 16.0606C31.9996 16.0871 31.9994 16.1133 31.9995 16.1394C32.0001 16.3833 31.996 16.6091 31.9845 16.7992C31.9826 16.8312 31.9796 16.8632 31.9775 16.8951C31.9716 16.984 31.9655 17.0726 31.9584 17.1609C31.9581 17.1654 31.9577 17.1699 31.9573 17.1745C31.3587 25.4259 24.503 31.9414 16.1125 31.9992C16.1121 31.9992 16.1116 31.9992 16.1111 31.9992C16.0914 31.9994 16.0716 31.9994 16.0519 31.9995C16.0475 31.9995 16.043 31.9997 16.0386 31.9997C16.0258 31.9998 16.0128 32 16 32C10.5399 31.9999 5.7185 29.265 2.83126 25.0902C2.75044 24.9763 2.67068 24.8608 2.59213 24.7443C2.58135 24.7283 2.57077 24.7122 2.56006 24.6962C2.08951 23.9928 1.69162 23.286 1.35517 22.5465C1.32872 22.4883 1.30261 22.43 1.27691 22.3715C0.814003 21.3167 0.472156 20.1921 0.217943 18.9152C0.0651346 18.1503 0.0158845 17.6999 0.00381273 16.6459C0.00337851 16.6078 0.00279265 16.5688 0.00245403 16.5291C0.00133316 16.3983 0.000777649 16.2585 0.000551858 16.1082C0.000530491 16.0938 0.000294462 16.0792 0.000280119 16.0647C0.000194839 16.0432 8.38013e-06 16.0215 8.38013e-06 16C8.97299e-06 15.9805 0.000210565 15.961 0.000280119 15.9416C0.000283504 15.9285 6.40825e-05 15.9154 8.38013e-06 15.9022C2.1324e-05 15.8815 -1.57858e-05 15.8607 8.38013e-06 15.8397C0.0028992 13.6294 0.141648 12.7233 0.764139 10.8576C2.55742 5.48205 7.2628 1.35504 12.8073 0.295109C13.0604 0.246747 13.3139 0.204598 13.5677 0.168207C13.5794 0.16653 13.591 0.164695 13.6027 0.163043C13.6601 0.154947 13.7174 0.147163 13.7747 0.139674C13.7819 0.13874 13.7891 0.137881 13.7962 0.136957C13.8453 0.130611 13.8944 0.124379 13.9435 0.118478C13.9714 0.115127 13.9993 0.111903 14.0272 0.108696C14.0726 0.103477 14.1179 0.0985902 14.1633 0.09375C14.1737 0.0926396 14.1842 0.0915795 14.1946 0.0904891C14.7728 0.0299262 15.3513 -9.79343e-06 15.928 0.000271739C15.9351 0.000275 15.9421 0.000259442 15.9492 0.000271739C15.9661 0.000219151 15.9831 9.35388e-07 16 0Z" fill="#E6ECEF"/>
<path d="M3.49213 5.91549C3.51516 5.88717 3.53819 5.85886 3.56142 5.83071L3.65354 5.72065C3.75085 5.60484 3.8498 5.49045 3.95028 5.37745C3.93876 5.39037 3.92696 5.40306 3.91549 5.41603C3.96824 5.35632 4.02139 5.29696 4.07501 5.23804C6.36138 2.72577 9.4286 0.941021 12.8073 0.295109C13.9326 0.0800524 15.0668 -0.0160547 16.1921 0.00244565C16.1271 0.00137664 16.0619 0.000573004 15.9967 0.000271739H15.9492C15.9661 0.000219273 15.9831 1.93545e-06 16 0C18.0977 0 20.1013 0.403875 21.937 1.13777C21.9422 1.13984 21.9477 1.14193 21.953 1.14402C21.8308 1.09581 21.708 1.0493 21.5848 1.00408C22.1078 1.19598 22.6213 1.41478 23.1231 1.66005C23.1251 1.66105 23.1273 1.66205 23.1294 1.66304C23.1499 1.67311 23.1705 1.68352 23.191 1.69375C24.05 2.11858 24.8743 2.62092 25.6525 3.19864C26.6527 3.94187 28.3861 5.70075 29.0818 6.6788C29.6995 7.54623 30.9059 9.83732 30.8201 9.9769C30.7901 10.025 30.6188 10.0636 30.4397 10.0636C30.1448 10.0636 30.1072 10.0953 30.059 10.3764C30.0301 10.5488 29.6601 13.1278 29.2361 16.1082C28.8122 19.0882 28.4044 21.6698 28.3302 21.8476C28.0816 22.4415 27.4582 22.663 27.0236 22.3117C26.8194 22.1461 26.6748 21.7889 24.7351 16.6337L24.0008 14.6842H22.9571C22.383 14.6842 21.9128 14.7017 21.9125 14.7228C21.9125 14.744 22.1072 15.2755 22.3462 15.9022C22.5841 16.5294 22.7797 17.099 22.7799 17.1679C22.7799 17.3258 21.1872 21.7291 20.9973 22.097C20.7574 22.561 20.3756 22.7958 19.9535 22.7399C19.544 22.6851 19.2741 22.4821 19.0361 22.0489C18.8993 21.8005 18.8695 21.2498 18.8204 18.15C18.7722 15.0639 18.7384 14.463 18.5929 14.0106C17.957 12.04 16.5684 10.5968 14.7337 10.0019C13.7653 9.68712 12.295 9.6485 11.313 9.91223C9.25673 10.4629 7.55589 12.2035 7.0731 14.2511C6.94687 14.7854 6.80811 24.6962 6.92664 24.6962C7.01891 24.6956 8.78526 23.3657 8.86522 23.2367C8.8999 23.1792 8.92224 21.4381 8.91549 19.3668C8.90779 17.2942 8.94244 15.3283 8.99158 14.9981C9.4002 12.268 12.3682 10.8741 14.8726 12.2353C15.442 12.5453 16.0287 13.1432 16.3169 13.7092C16.7562 14.5698 16.8054 15.0242 16.8054 18.253C16.8054 19.9289 16.8488 21.5337 16.9027 21.8187C16.9557 22.1047 17.1293 22.6034 17.2883 22.9288C18.0525 24.4883 19.8968 25.1863 21.3614 24.4701C22.3154 24.0042 22.7144 23.3908 23.4573 21.2527C23.6828 20.6031 23.8851 20.089 23.9073 20.1109C23.9295 20.132 24.1615 20.7252 24.4236 21.428C24.97 22.8932 25.2487 23.4119 25.6929 23.7864C27.1547 25.0215 29.3373 24.4691 30.1506 22.6592C30.4069 22.0884 30.4994 21.5385 31.4245 15.0443C31.5661 14.0509 31.7134 13.2713 31.7519 13.3117C31.8992 13.4638 32.0471 15.6795 31.9853 16.7745C31.9849 16.7827 31.985 16.791 31.9845 16.7992C31.9838 16.8108 31.9827 16.8224 31.9818 16.834C31.9747 16.9479 31.9665 17.0614 31.9573 17.1745C31.3599 25.4098 24.5298 31.9156 16.1617 31.9984C16.1176 31.999 16.0736 31.9997 16.0296 31.9997C16.0198 31.9998 16.0098 32 16 32C10.54 31.9999 5.71848 29.265 2.83126 25.0902C2.8167 25.0697 2.80226 25.0489 2.78778 25.0283C2.77969 25.0167 2.77167 25.005 2.76359 24.9935C2.77005 25.0027 2.77669 25.012 2.78316 25.0212C2.7189 24.9297 2.65521 24.8374 2.5924 24.7443H2.59213C2.60073 24.7571 2.60958 24.7699 2.61821 24.7826C2.60961 24.7699 2.60069 24.7573 2.59213 24.7446C2.55489 24.6893 2.51787 24.6338 2.48153 24.5785C2.44516 24.5232 2.40913 24.4677 2.37365 24.4122C2.25275 24.2233 2.13722 24.0337 2.02636 23.8432C2.02016 23.8325 2.01406 23.8218 2.00789 23.8111C1.8767 23.5844 1.75225 23.3562 1.63452 23.1253C1.63787 23.1318 1.64148 23.1383 1.64484 23.1448C1.6326 23.1209 1.62026 23.0971 1.60816 23.0731C1.61427 23.0852 1.62021 23.0974 1.62636 23.1095C1.6158 23.0887 1.60557 23.0678 1.59511 23.047C1.5912 23.0392 1.58732 23.0314 1.58343 23.0236C1.57194 23.0007 1.56056 22.9776 1.54919 22.9546C1.56441 22.9855 1.57967 23.0163 1.59511 23.047C1.57325 23.0035 1.5513 22.96 1.5299 22.9163C1.48194 22.8184 1.43539 22.7199 1.38968 22.6209C1.38278 22.606 1.37587 22.5911 1.36903 22.5761C1.36061 22.5577 1.3521 22.5394 1.34376 22.5209C1.3375 22.5071 1.33149 22.4932 1.32528 22.4793C1.31278 22.4515 1.30037 22.4236 1.28805 22.3957C1.2789 22.3749 1.26966 22.3542 1.2606 22.3334C1.25592 22.3227 1.2514 22.3119 1.24674 22.3011C1.2433 22.2931 1.23985 22.2851 1.23642 22.2772C1.23233 22.2677 1.22826 22.2582 1.22419 22.2486C1.20898 22.2131 1.19375 22.1776 1.17881 22.1418C1.17779 22.1394 1.17684 22.1369 1.17582 22.1345C1.16619 22.1114 1.15654 22.0884 1.14702 22.0652C0.749331 21.0991 0.447712 20.0693 0.21794 18.9152C0.0310238 17.9796 -0.00164819 17.5146 0.000277336 15.8397C0.00134062 15.0267 0.0209577 14.3901 0.0760926 13.8174C0.0755595 13.8229 0.0747168 13.8284 0.0741904 13.834C0.0757607 13.8173 0.077166 13.8005 0.0788099 13.784C0.0821376 13.7504 0.08637 13.7171 0.0899513 13.684C0.0937841 13.6485 0.0975045 13.6133 0.101636 13.5783C0.106312 13.5385 0.110968 13.4991 0.116038 13.4598C0.123687 13.4007 0.132187 13.342 0.140766 13.2837C0.149558 13.2238 0.158939 13.1643 0.168756 13.1049C0.173334 13.0772 0.177806 13.0496 0.182614 13.022C0.191596 12.9704 0.201067 12.9189 0.210875 12.8674C0.21469 12.8474 0.218618 12.8274 0.22256 12.8073C0.231458 12.7621 0.239896 12.7166 0.249462 12.6712L0.292397 12.4802C0.338519 12.2796 0.391077 12.0751 0.451636 11.8611C0.450137 11.8664 0.448506 11.8716 0.447017 11.8769C0.452236 11.8584 0.457164 11.8396 0.462506 11.8209C0.478277 11.7658 0.495005 11.71 0.511962 11.6535C0.506463 11.672 0.501326 11.6906 0.49593 11.709C0.573577 11.4444 0.662235 11.1638 0.764408 10.8576C1.24499 9.41702 1.9348 8.06619 2.79376 6.83995C2.83612 6.77924 2.87872 6.71871 2.92202 6.6587C2.97304 6.58796 3.02475 6.51769 3.07691 6.44783C3.12192 6.38752 3.16748 6.32759 3.21332 6.26793C3.18925 6.29926 3.16569 6.33099 3.14185 6.3625C3.25614 6.2115 3.37266 6.06227 3.49213 5.91549ZM19.7448 31.5288C19.4206 31.6071 19.0922 31.6755 18.7598 31.7345C18.6766 31.7493 18.5932 31.7634 18.5095 31.7769C18.196 31.8277 17.8789 31.8697 17.5582 31.9035C18.3067 31.8246 19.0355 31.7 19.7448 31.5288ZM13.1304 31.6946C13.2676 31.7188 13.4054 31.7414 13.5438 31.7622C13.4054 31.7414 13.2676 31.7188 13.1304 31.6946ZM20.4679 31.3361V31.3364V31.3361ZM23.0033 30.3516C22.8551 30.4246 22.7059 30.4952 22.5557 30.5633C22.2553 30.6996 21.951 30.8263 21.6427 30.9432C21.4115 31.0309 21.1781 31.1131 20.9424 31.1899L21.1775 31.1114C21.802 30.8969 22.4104 30.6436 23.0033 30.3516ZM23.6636 30.0068H23.6639H23.6636ZM25.6595 28.6891C25.8073 28.5722 25.9588 28.4488 26.1114 28.3204C25.9588 28.4488 25.8073 28.5722 25.6595 28.6891ZM27.9275 26.613C27.8481 26.6973 27.7655 26.7829 27.6804 26.8696C27.7655 26.7829 27.8481 26.6973 27.9275 26.613ZM5.38778 10.4649C5.33767 10.334 5.20471 10.49 4.01658 12.0736L3.41142 12.8802V24.703L5.38669 24.6481L5.41169 17.6207C5.42518 13.7566 5.41474 10.537 5.38778 10.4649ZM0.0320708 17.5601C0.0327813 17.5716 0.0335054 17.5832 0.0342447 17.5946C0.0334758 17.5827 0.0325357 17.5707 0.0317991 17.5587C0.0318262 17.5591 0.0320218 17.5596 0.0320708 17.5601ZM0.000549075 16.1076C0.000527237 16.0934 0.00029147 16.079 0.000277336 16.0647C0.000191899 16.0432 5.59691e-06 16.0215 5.59691e-06 16L0.000549075 16.1076ZM0.000277336 15.9416C0.00025025 15.9491 5.41724e-05 15.9568 5.59691e-06 15.9644C6.75043e-06 15.9439 -7.55422e-06 15.9231 5.59691e-06 15.9022C6.11316e-05 15.9154 0.000279736 15.9286 0.000277336 15.9416ZM5.59691e-06 15.8386C0.000142832 15.7354 0.000601791 15.635 0.00136429 15.5372L0.00245125 15.4397C0.00112663 15.5679 0.000188479 15.7008 5.59691e-06 15.8386ZM5.26713 6.56223C4.17635 5.99913 3.02582 6.58438 3.02582 7.70299C3.02679 8.30465 3.27348 8.73504 3.76876 8.99592C4.26212 9.25585 4.71039 9.24516 5.19702 8.95924C6.11813 8.42009 6.15843 7.02333 5.26713 6.56223ZM13.4929 0.179076C13.5174 0.175459 13.5419 0.171714 13.5663 0.168207C13.5784 0.166472 13.5906 0.16475 13.6027 0.163043C13.6119 0.161746 13.6213 0.16052 13.6304 0.159239C13.5846 0.165632 13.5387 0.172295 13.4929 0.179076ZM13.9255 0.120652C13.937 0.119259 13.9486 0.117942 13.9601 0.116576C13.9741 0.114898 13.9884 0.113055 14.0025 0.111413C14.0198 0.109392 14.0373 0.1074 14.0546 0.105435C14.0116 0.110309 13.9685 0.115438 13.9255 0.120652ZM17.6245 0.0883152C17.6865 0.0947462 17.7484 0.101565 17.8103 0.108696C17.7484 0.101568 17.6865 0.0947438 17.6245 0.0883152ZM1.16713 22.113C1.17009 22.1202 1.17285 22.1274 1.17582 22.1345C1.17567 22.1341 1.17543 22.1338 1.17528 22.1334C1.17246 22.1267 1.16993 22.1198 1.16713 22.113ZM2.68452 6.9981C2.67673 7.00951 2.66891 7.0209 2.66115 7.03234C2.66415 7.02791 2.66711 7.02345 2.67011 7.01902C2.67488 7.01202 2.67974 7.00509 2.68452 6.9981ZM3.51006 5.89375C3.47788 5.93314 3.44567 5.97252 3.41386 6.01223C3.4398 5.97986 3.46595 5.94766 3.49213 5.91549C3.49806 5.9082 3.50412 5.90103 3.51006 5.89375ZM28.6304 25.7951C28.6554 25.763 28.6805 25.7311 28.7052 25.6989C28.6805 25.7311 28.6554 25.763 28.6304 25.7951Z" fill="url(#paint0_radial_542_1094)"/>
<defs>
<radialGradient id="paint0_radial_542_1094" cx="0" cy="0" r="1" gradientTransform="matrix(11.3289 23.9999 -24 11.307 4.67123 8.00005)" gradientUnits="userSpaceOnUse">
<stop stop-color="#C02A0C"/>
<stop offset="0.34" stop-color="#C0720C"/>
<stop offset="1" stop-color="#065F93"/>
</radialGradient>
</defs>
</svg>
