<svg width="50" height="50" viewBox="0 0 50 50" fill="none" xmlns="http://www.w3.org/2000/svg">
<path d="M23.6056 0.0643044C30.9391 0.862911 37.3962 5.35264 40.6003 11.8876C41.6034 13.9523 42.1683 15.6956 42.5676 18.0719C42.8403 19.6886 42.8598 22.7175 42.6066 24.4413C42.0709 28.0837 40.5516 31.6775 38.3798 34.4336L37.8831 35.0667L43.8629 41.0562L49.8525 47.0458L48.4695 48.4385L47.0768 49.8214L41.0873 43.8416L35.0977 37.8521L34.0946 38.6117C32.8382 39.5662 31.2508 40.4719 29.6925 41.1244C20.8689 44.8058 10.6915 42.2249 4.70195 34.7745C0.991344 30.1484 -0.644833 24.0517 0.231689 18.1693C1.38091 10.5631 6.60107 4.0963 13.7885 1.35961C15.1131 0.862911 16.8174 0.414909 18.2004 0.200645C19.4567 0.00586319 22.4174 -0.0623055 23.6056 0.0643044ZM19.5833 3.95995C11.3538 4.84621 4.89672 11.313 3.99099 19.5523C3.78647 21.354 3.8936 23.2337 4.2929 25.0743C5.05255 28.6194 7.12698 32.1547 9.80524 34.4921C16.5155 40.3258 26.1085 40.3648 32.9162 34.5797C36.9774 31.1223 39.3245 25.4055 38.8668 20.0782C38.3993 14.5464 35.6334 9.83263 31.1047 6.81351C27.6765 4.53456 23.5958 3.52169 19.5833 3.95995Z" fill="url(#paint0_linear_705_64)"/>
<defs>
<linearGradient id="paint0_linear_705_64" x1="-1.14441e-05" y1="24.9107" x2="49.8525" y2="24.9107" gradientUnits="userSpaceOnUse">
<stop stop-color="#065F93"/>
<stop offset="1" stop-color="#003757"/>
</linearGradient>
</defs>
</svg>
