<svg width="65" height="62" viewBox="0 0 65 62" fill="none" xmlns="http://www.w3.org/2000/svg">
<path d="M46.5157 37.4272C45.1471 42.94 44.0218 47.5204 44.0015 47.6024C43.9711 47.7253 44.3665 47.8585 45.9074 48.2479C46.9719 48.5143 47.864 48.7193 47.8742 48.709C47.9249 48.6475 52.8924 28.41 52.8721 28.3895C52.8315 28.3588 49.1617 27.4161 49.0704 27.4161C49.0197 27.4161 47.8742 31.9247 46.5157 37.4272Z" fill="#065F93"/>
<path d="M34.7318 34.9518L30.9999 38.4877L34.7647 42.0443L38.5184 45.6114L40.077 44.1243L41.6466 42.6475L39.4514 40.5676L37.2562 38.4877L39.4514 36.4077L41.6466 34.3278L40.11 32.8718C39.2648 32.0711 38.5514 31.4159 38.5184 31.4159C38.4855 31.4159 36.7843 33.007 34.7318 34.9518Z" fill="#065F93"/>
<path d="M55.4559 32.8719L53.9999 34.3279L56.0799 36.4078L58.1598 38.4877L56.0799 40.5677L53.9999 42.6476L55.4871 44.1244L56.9638 45.6115L60.5205 42.0444L64.0876 38.4877L60.5517 34.9519C58.607 33.0071 56.995 31.416 56.9638 31.416C56.9326 31.416 56.2567 32.0712 55.4559 32.8719Z" fill="#065F93"/>
<path d="M18 26.6846V28.8179H19.7044H21.4088L20.725 29.5433L20.0412 30.2686V31.4633V32.6579L20.48 32.8393C21.3475 33.2019 23.6847 34.4819 24.246 34.9299C24.5726 35.1753 24.8379 35.4526 24.8379 35.5593C24.8379 35.6553 24.6951 35.8579 24.5216 36.0073L24.2052 36.2846H21.1026H18V38.4179V40.5513H21.2455C24.7665 40.5513 25.1645 40.4979 26.2668 39.9326C26.9914 39.5699 28.0936 38.4073 28.4406 37.6606C29.104 36.2419 29.1754 34.8659 28.6651 33.7459C28.3181 33.0099 27.2159 31.8366 26.2361 31.1753C25.8585 30.9193 25.5523 30.6739 25.5523 30.6313C25.5523 30.5779 26.1953 29.9059 26.9812 29.1273L28.41 27.7086V26.1299V24.5513H23.205H18V26.6846Z" fill="#065F93"/>
<path d="M33.2291 15.8971C36.3265 17.8882 38.7699 20.6608 40.2755 23.879L43.9647 23.4341C43.7451 22.9005 43.5085 22.3621 43.3147 21.9734C43.0616 21.4653 42.6511 20.6937 42.3904 20.2609C41.9453 19.5175 39.9126 16.842 39.4325 16.3807C39.3114 16.2605 38.9299 15.8917 38.5948 15.5657C33.5065 10.5995 25.9471 8.34064 18.7017 9.61758C16.0642 10.0863 13.2097 11.1931 10.6995 12.722C9.73282 13.3031 7.03378 15.5048 6.27031 16.3351C1.58955 21.3635 -0.596071 27.8259 0.102845 34.5746C1.02478 43.5042 7.33888 51.2163 15.9207 53.9091C19.6617 55.0758 23.8622 55.28 27.6067 54.4729C30.7994 53.7904 33.8019 52.4127 36.4042 50.4927L33.0511 48.4606C32.6444 48.7132 32.2256 48.9525 31.794 49.1786C27.0792 51.6645 21.5425 52.0548 16.3841 50.2808C12.5817 48.9681 9.05168 46.2231 6.79445 42.8202C2.55462 36.4358 2.48133 28.1509 6.59794 21.7385C8.89055 18.1625 11.9633 15.656 15.927 14.1285C21.6543 11.9231 28.0504 12.5722 33.2291 15.8971Z" fill="#065F93"/>
</svg>
