<svg width="60" height="61" viewBox="0 0 60 61" fill="none" xmlns="http://www.w3.org/2000/svg">
<path d="M17.8882 30.0278V32.1611H20.7575H23.6269L23.9575 32.4385C24.3735 32.7905 24.3735 33.0465 23.9575 33.7185C23.2429 34.8385 21.1202 37.3345 19.0935 39.4251L17.8882 40.6625V42.2838V43.8945H23.3282H28.7682V41.7611V39.6278H26.7415H24.7149L25.6322 38.5291C27.3389 36.5025 28.2242 35.0945 28.5122 33.9851C28.8642 32.5771 28.2775 30.7318 27.0722 29.4945C26.3682 28.7798 25.2695 28.1825 24.2989 28.0011C23.9895 27.9478 22.4109 27.8945 20.8109 27.8945H17.8882V30.0278Z" fill="#065F93"/>
<path d="M21.1177 14.4138C20.948 14.4317 20.4211 14.4942 19.9567 14.5478C12.8921 15.3516 6.36346 19.7815 2.77313 26.203C1.46918 28.5429 0.522473 31.4545 0.120571 34.3661C-0.0401902 35.4825 -0.0401902 38.9656 0.120571 40.082C1.05834 46.8875 4.6844 52.666 10.3557 56.3903C17.8579 61.3203 27.825 61.3024 35.3362 56.3546C38.605 54.1932 41.4183 51.0673 43.1599 47.6556C46.0714 41.9754 46.4644 35.1788 44.2316 29.2038L44.053 28.7216L43.7404 29.0252C43.5707 29.186 42.9455 29.829 42.3561 30.4542L41.2843 31.5974L41.5612 32.7317C42.2221 35.5271 42.2757 38.269 41.7041 41.0644C40.6502 46.2892 37.4528 50.8262 32.8176 53.702C29.3969 55.8187 25.0385 56.819 20.9748 56.4171C13.3476 55.6669 6.88146 50.4868 4.5147 43.2436C3.19289 39.2067 3.19289 35.2413 4.5147 31.2044C6.42597 25.3724 10.9719 20.8264 16.8218 18.9151C20.5194 17.7094 24.4312 17.6201 28.0394 18.6561L28.6646 18.8437L30.0042 17.4862C30.7455 16.7449 31.3529 16.1108 31.3707 16.0661C31.4064 15.9589 29.0933 15.2087 27.9054 14.9408C27.3517 14.8157 26.4943 14.6461 25.9942 14.5746C25.1368 14.4496 21.7786 14.3335 21.1177 14.4138Z" fill="#065F93"/>
<path d="M43.6206 7.08823C39.9057 10.9891 36.3034 14.7978 35.6167 15.5458C34.232 17.0532 33.7029 17.9277 33.3314 19.3315C32.9374 20.8274 30.9449 29.9409 31.0012 29.9984C31.0237 30.0329 33.4778 29.5036 36.4385 28.8247C42.3711 27.4669 42.9564 27.2713 44.2735 26.1551C44.6338 25.8559 48.3262 22.0357 52.4689 17.663L60 9.7233L55.2494 4.8674C52.6265 2.1863 50.4651 0 50.4313 0C50.3975 0 47.3355 3.1874 43.6206 7.08823ZM52.0636 8.16988L53.6284 9.76933L53.3019 10.1491C52.3225 11.2307 41.5042 22.5535 41.4367 22.5535C41.4029 22.5535 40.6599 21.8285 39.8044 20.954L38.2284 19.343L41.8307 15.5803C43.8007 13.4976 46.5363 10.6323 47.8984 9.19399C49.2605 7.75563 50.3975 6.57042 50.4313 6.57042C50.4651 6.55892 51.1968 7.28385 52.0636 8.16988Z" fill="#065F93"/>
</svg>
