<svg width="30" height="30" viewBox="0 0 30 30" fill="none" xmlns="http://www.w3.org/2000/svg">
<g clip-path="url(#clip0_705_111)">
<path d="M0 1.16605V2.33792L1.7168 2.3555L3.42773 2.37308L3.74414 2.54886C4.11914 2.75394 4.35938 3.03519 4.48242 3.39847C4.54102 3.56839 4.89844 7.29495 5.50781 14.0332C6.04688 20.0098 6.48047 24.5508 6.5332 24.7559C6.65625 25.2305 6.97266 25.8633 7.27734 26.2325C7.78711 26.8418 8.58398 27.3633 9.29883 27.5391C9.59766 27.6153 9.60352 27.6211 9.82031 28.0606C10.1191 28.6758 10.7695 29.3203 11.3848 29.6133C13.1133 30.4453 15.1465 29.7891 16.0312 28.1133L16.2363 27.7149H17.5664H18.9023L19.084 28.0899C19.3242 28.5703 19.916 29.2032 20.3965 29.4903C22.3828 30.668 24.9199 29.6426 25.582 27.3926C25.6523 27.1582 25.6875 26.8418 25.6875 26.4551C25.6816 25.9571 25.6582 25.793 25.5117 25.3711C25.2949 24.75 24.9961 24.293 24.5449 23.8828C22.7871 22.295 19.9922 22.8692 19.002 25.0254L18.8438 25.3711H17.5723H16.3008L16.084 24.9317C15.8203 24.3985 15.2637 23.7832 14.8008 23.502C13.7402 22.8692 12.5449 22.8047 11.4316 23.3262C10.8164 23.6133 10.1367 24.2637 9.84961 24.8321L9.66211 25.2071L9.50391 25.1016C9.22266 24.9258 9.07617 24.7617 8.92383 24.4688C8.79492 24.2168 8.76562 24.0059 8.64258 22.6524C8.56055 21.8145 8.49023 21.0235 8.47266 20.9063L8.44922 20.6895L15.3105 20.666C21.7266 20.6485 22.207 20.6426 22.582 20.543C24.1875 20.1211 25.5469 18.9961 26.1914 17.5547C26.2793 17.3555 27.1582 14.8125 28.1426 11.8946C29.127 8.97659 29.9531 6.54495 29.9707 6.48636C30.0117 6.39261 29.9297 6.38675 28.7812 6.38675H27.5508L27.3457 6.98441C27.082 7.76956 26.1328 10.5528 24.9902 13.9102C24.2051 16.2246 24.041 16.6582 23.8066 17.0098C23.5254 17.4375 23.127 17.7891 22.6641 18.0235C22.0312 18.3457 22.2012 18.3399 14.959 18.3399H8.26758L8.23828 18.1465C8.2207 18.0469 7.91602 14.7012 7.55859 10.7227C7.20117 6.74417 6.87305 3.293 6.82031 3.05862C6.56836 1.86917 5.60156 0.744171 4.44141 0.28714C3.83789 0.0469055 3.36328 3.05176e-05 1.63477 3.05176e-05H0V1.16605ZM13.5938 25.5117C13.8516 25.6817 14.1211 26.1446 14.1211 26.4258C14.1211 27.1231 13.4355 27.7383 12.7852 27.6328C11.8711 27.4864 11.4668 26.4141 12.0586 25.711C12.416 25.2832 13.1133 25.1953 13.5938 25.5117ZM22.834 25.5059C23.0918 25.6817 23.291 25.9981 23.3496 26.3145C23.4785 27.0117 22.7461 27.75 22.043 27.6328C21.0762 27.4805 20.6895 26.2793 21.3984 25.6231C21.7734 25.2715 22.4238 25.2188 22.834 25.5059Z" fill="#065F93"/>
<path d="M11.3086 7.56445C11.3086 14.6191 11.3145 15.0117 11.4082 14.9355C11.4668 14.8887 12.3867 14.0684 13.459 13.1074C14.5313 12.1523 15.4277 11.3672 15.4512 11.3672C15.4805 11.3672 15.8789 12.1113 16.3418 13.0254C16.8047 13.9336 17.3379 14.9766 17.5313 15.334L17.877 15.9961L18.7969 15.5332C19.3008 15.2754 19.7695 15.0293 19.8281 14.9824C19.9336 14.9063 19.8809 14.7891 18.7852 12.6621C18.1465 11.4258 17.6367 10.4121 17.6484 10.4063C17.6602 10.4004 18.9434 10.2656 20.5078 10.1074C22.0723 9.95508 23.3555 9.82031 23.3672 9.81445C23.3789 9.80273 22.7871 9.31055 22.0488 8.71875C18.9434 6.21094 11.4492 0.19336 11.3848 0.152345C11.3262 0.117188 11.3086 1.61719 11.3086 7.56445ZM15.6738 6.59766L17.4902 8.05664L16.418 8.17383L15.3398 8.29102L14.748 8.81836C14.4258 9.10547 14.0449 9.44531 13.9043 9.56836L13.6523 9.79688V7.37695C13.6523 5.08008 13.6582 4.96875 13.7578 5.05078C13.8105 5.09766 14.6777 5.79492 15.6738 6.59766Z" fill="#065F93"/>
</g>
<defs>
<clipPath id="clip0_705_111">
<rect width="30" height="30" fill="white"/>
</clipPath>
</defs>
</svg>
