<svg width="32" height="32" viewBox="0 0 32 32" fill="none" xmlns="http://www.w3.org/2000/svg">
<path d="M16 0C24.8366 0 32 7.16344 32 16C32 24.8366 24.8366 32 16 32C7.16344 32 0 24.8366 0 16C0 7.16344 7.16344 0 16 0ZM18.2861 4.84082C16.6741 4.84083 15.1273 5.48135 13.9873 6.62109C12.8474 7.76103 12.2072 9.30783 12.207 10.9199V12.9678H10.1592C9.60706 12.9678 9.15944 13.4157 9.15918 13.9678V18.0312C9.15918 18.5835 9.60689 19.0312 10.1592 19.0312H12.207V26.1582C12.207 26.7105 12.6547 27.1582 13.207 27.1582H17.2705C17.8225 27.1578 18.2705 26.7103 18.2705 26.1582V19.0312H20.3184C20.7768 19.0308 21.1769 18.7183 21.2881 18.2734L22.3037 14.21C22.378 13.9115 22.3113 13.595 22.1221 13.3525C21.9327 13.11 21.6417 12.968 21.334 12.9678H18.2705V10.9199C18.2707 10.916 18.2726 10.912 18.2754 10.9092C18.2783 10.9065 18.2822 10.9043 18.2861 10.9043H21.334C21.886 10.9039 22.334 10.4564 22.334 9.9043V5.84082C22.3337 5.28896 21.8858 4.84117 21.334 4.84082H18.2861ZM20.334 6.84082V8.9043H18.2861C17.7517 8.90431 17.2383 9.11736 16.8604 9.49512C16.4827 9.87296 16.2707 10.3857 16.2705 10.9199V13.9678C16.2705 14.5201 16.7182 14.9678 17.2705 14.9678H20.0527L19.5371 17.0312H17.2705C16.7184 17.0312 16.2708 17.4792 16.2705 18.0312V25.1582H14.207V18.0312C14.2068 17.4794 13.7588 17.0316 13.207 17.0312H11.1592V14.9678H13.207C13.759 14.9674 14.207 14.5198 14.207 13.9678V10.9199C14.2072 9.83826 14.6365 8.80002 15.4014 8.03516C16.1663 7.27049 17.2045 6.84083 18.2861 6.84082H20.334Z" fill="#F2F2F3"/>
</svg>
