<svg width="20" height="20" viewBox="0 0 20 20" fill="none" xmlns="http://www.w3.org/2000/svg">
<g clip-path="url(#clip0_705_47)">
<path d="M6.79688 4.6875V9.375H6.13477C4.92188 9.375 4.1543 9.67383 3.39844 10.4297C2.88867 10.9336 2.63086 11.3848 2.46094 12.0469C2.34961 12.4688 2.34375 12.709 2.33789 15.4922V18.4863L1.91602 18.6855C1.33008 18.9609 0.685547 19.6113 0.386719 20.2148C0 21.0059 0 20.9941 0 25.7344V30H15H30V25.7344C30 20.9941 30 21.0059 29.6133 20.2148C29.3145 19.6113 28.6699 18.9609 28.084 18.6855L27.6621 18.4863L27.6562 15.5273C27.6562 12.2227 27.6387 12.0703 27.2695 11.3203C27.0059 10.7871 26.4551 10.1895 25.9512 9.88477C25.5879 9.67383 25.0488 9.48047 24.5977 9.4043L24.375 9.36914V8.20312V7.03125H26.1328H27.8906V3.51562V0H23.2031H18.5156V3.51562V7.03125H20.2734H22.0312V8.20312V9.375H19.1016H16.1719V4.6875V0H11.4844H6.79688V4.6875ZM13.8281 7.96875V13.5938H11.4844H9.14062V7.96875V2.34375H11.4844H13.8281V7.96875ZM25.5469 3.51562V4.6875H23.2031H20.8594V3.51562V2.34375H23.2031H25.5469V3.51562ZM6.79688 13.8281V15.9375H11.4844H16.1719V13.8281V11.7129L20.3496 11.7305L24.5215 11.748L24.7441 11.8887C24.8672 11.9648 25.0371 12.1348 25.125 12.2637L25.2832 12.5039L25.3008 15.3926L25.3184 18.2812H15H4.6875V15.5098C4.6875 13.7461 4.71094 12.6621 4.75195 12.5215C4.82812 12.2461 5.20312 11.8594 5.46094 11.7832C5.56641 11.7539 5.91211 11.7246 6.22852 11.7246L6.79688 11.7188V13.8281ZM27.0879 20.7949C27.2109 20.8711 27.3809 21.041 27.4688 21.1699L27.627 21.4102L27.6445 24.5332L27.6621 27.6562H15H2.34375V24.6504C2.34375 22.7227 2.36719 21.5684 2.4082 21.4277C2.48438 21.1523 2.85938 20.7656 3.11719 20.6895C3.24023 20.6543 7.76367 20.6367 15.0879 20.6426L26.8652 20.6543L27.0879 20.7949Z" fill="#065F93"/>
<path d="M9.14062 24.1406V25.3125H15H20.8594V24.1406V22.9688H15H9.14062V24.1406Z" fill="#065F93"/>
</g>
<defs>
<clipPath id="clip0_705_47">
<rect width="20" height="20" fill="white"/>
</clipPath>
</defs>
</svg>
