<svg width="32" height="32" viewBox="0 0 32 32" fill="none" xmlns="http://www.w3.org/2000/svg">
<path d="M16 0C24.8366 0 32 7.16344 32 16C32 24.8366 24.8366 32 16 32C7.16344 32 0 24.8366 0 16C0 7.16344 7.16344 0 16 0ZM10.9199 4.84082C7.56295 4.84121 4.84121 7.56295 4.84082 10.9199V21.0791C4.84092 24.4363 7.56277 27.1578 10.9199 27.1582H21.0791C24.4365 27.1581 27.1581 24.4365 27.1582 21.0791V10.9199C27.1578 7.56277 24.4363 4.84092 21.0791 4.84082H10.9199ZM21.0791 6.84082C23.3318 6.84092 25.1578 8.66734 25.1582 10.9199V21.0791C25.1581 23.3319 23.3319 25.1581 21.0791 25.1582H10.9199C8.66734 25.1578 6.84092 23.3318 6.84082 21.0791V10.9199C6.84121 8.66752 8.66752 6.84121 10.9199 6.84082H21.0791ZM16.7861 10.9473C15.7328 10.7912 14.6561 10.9705 13.7109 11.4609C12.7659 11.9514 11.9993 12.7277 11.5205 13.6787C11.0418 14.6298 10.875 15.7085 11.0439 16.7598C11.2131 17.8111 11.7101 18.7831 12.4629 19.5361C13.2159 20.2891 14.1879 20.7858 15.2393 20.9551C16.2906 21.1242 17.3691 20.9572 18.3203 20.4785C19.2714 19.9997 20.0476 19.2332 20.5381 18.2881C21.0285 17.3428 21.208 16.2663 21.0518 15.2129C20.8923 14.1385 20.3921 13.1431 19.624 12.375C18.8559 11.6071 17.8605 11.1066 16.7861 10.9473ZM14.6328 13.2363C15.2046 12.9397 15.856 12.8304 16.4932 12.9248C17.143 13.0212 17.7453 13.3246 18.21 13.7891C18.6745 14.2536 18.9777 14.856 19.0742 15.5059C19.1687 16.1431 19.0593 16.7944 18.7627 17.3662C18.4659 17.9382 17.9965 18.4027 17.4209 18.6924C16.8454 18.982 16.1927 19.0828 15.5566 18.9805C14.9207 18.878 14.3324 18.5776 13.877 18.1221C13.4216 17.6665 13.1209 17.0783 13.0186 16.4424C12.9163 15.8064 13.017 15.1535 13.3066 14.5781C13.5963 14.0027 14.061 13.5331 14.6328 13.2363ZM21.5869 9.41211C21.035 9.41235 20.5872 9.86024 20.5869 10.4121C20.5869 10.9642 21.0348 11.4119 21.5869 11.4121H21.5967C22.149 11.4121 22.5967 10.9644 22.5967 10.4121C22.5964 9.8601 22.1488 9.41211 21.5967 9.41211H21.5869Z" fill="#E6ECEF"/>
</svg>
