<svg width="68" height="67" viewBox="0 0 68 67" fill="none" xmlns="http://www.w3.org/2000/svg">
<path d="M60.5198 0.016983C57.3515 0.330891 55.1468 0.93681 52.599 2.20705C51.3069 2.84947 49.971 3.68899 48.9124 4.52122C48.5547 4.80593 47.1166 6.17107 45.7222 7.55811L43.1818 10.0767L42.5101 9.41236C41.7217 8.64584 41.1085 8.22973 40.4223 7.98882C39.7069 7.74792 38.4074 7.74792 37.6482 7.99612C36.7065 8.30273 36.3853 8.57284 33.2681 11.6754L30.3334 14.6101L31.37 15.6468L32.4066 16.6834L33.29 15.8293C34.02 15.1065 34.2244 14.9532 34.5091 14.8729C34.8814 14.7707 35.1661 14.7999 35.5384 14.9751C35.6698 15.0335 37.5606 16.8805 39.7507 19.0779C41.9407 21.2679 43.6052 22.9762 43.4592 22.8667C43.0723 22.5893 42.0575 22.1147 41.5392 21.9833C40.3858 21.6767 38.8892 21.7862 37.7796 22.2608C36.4583 22.8302 35.3048 23.9325 34.7719 25.1297C34.6551 25.4072 31.7131 33.5031 30.6619 36.4524L30.3407 37.343L31.2313 37.0291C32.392 36.613 39.6339 33.9922 41.3056 33.3863C42.7876 32.8388 43.4665 32.4519 44.16 31.7656C45.3645 30.5611 45.9485 29.0427 45.8609 27.3198C45.8098 26.1956 45.4959 25.2684 44.8389 24.2829C44.7221 24.1004 46.445 25.7795 48.6788 28.006C52.6136 31.9481 52.7305 32.065 52.8108 32.43C52.8838 32.7147 52.8765 32.8826 52.8108 33.16C52.7305 33.4739 52.6063 33.6345 51.8617 34.3937L51.0003 35.277L52.0369 36.3137L53.0809 37.3503L56.0375 34.3791C59.14 31.2619 59.3518 31.0064 59.6876 30.0501C59.8263 29.6559 59.8555 29.4223 59.8628 28.6995C59.8628 27.2249 59.5343 26.4803 58.2786 25.1881L57.607 24.4946L60.1329 21.9614C61.5272 20.5598 62.8851 19.1217 63.1844 18.7347C65.2649 16.0337 66.6885 12.9311 67.3017 9.77008C67.6083 8.17863 67.6667 7.47781 67.6667 5.59435C67.6594 3.76199 67.6083 3.20718 67.2652 1.38212L67.1119 0.5718L66.1191 0.381992C65.5642 0.279789 64.8415 0.162987 64.4984 0.119186C63.8633 0.0388832 61.0527 -0.0341187 60.5198 0.016983ZM64.2429 3.02467L64.6079 3.07578L64.6663 3.47729C64.7028 3.69629 64.732 4.66722 64.7393 5.63085C64.7466 7.46321 64.6882 8.07643 64.3451 9.66787L64.1845 10.4271L60.7315 6.97409C58.8334 5.07603 57.2858 3.51379 57.2931 3.49919C57.3515 3.44078 59.6073 3.03197 60.1913 2.97357C60.914 2.90057 63.6005 2.93707 64.2429 3.02467ZM58.6509 9.05466L63.0603 13.464L62.6515 14.2232C62.155 15.1503 61.5637 16.0483 60.8483 16.9827C60.5125 17.4207 58.6947 19.3042 55.8768 22.1294L51.431 26.5825L46.2698 21.4139L41.1012 16.2527L45.5908 11.7776C50.0878 7.2953 50.6718 6.76239 52.088 5.84256C52.6063 5.50675 54.1248 4.64532 54.2051 4.64532C54.227 4.64532 56.2273 6.63098 58.6509 9.05466ZM39.6631 10.8432C39.8091 10.9235 40.196 11.252 40.5172 11.5732L41.1012 12.1645L40.0865 13.1793L39.0717 14.2013L38.349 13.5151C37.7139 12.9165 37.1372 12.4566 36.8817 12.3617C36.7649 12.3179 38.0351 11.0257 38.3636 10.8505C38.7067 10.6607 39.3126 10.6607 39.6631 10.8432ZM41.2983 24.9983C41.875 25.283 42.459 25.8744 42.7218 26.4438C42.992 27.0424 43.0358 27.8819 42.8168 28.5097C42.5612 29.2763 42.0721 29.8676 41.437 30.1961C41.1012 30.364 35.2829 32.4738 35.2464 32.4373C35.2099 32.4008 37.3197 26.5825 37.4876 26.2467C37.6847 25.8744 38.0278 25.4875 38.4001 25.2319C39.2396 24.6552 40.415 24.5603 41.2983 24.9983ZM56.1543 27.2176C56.4755 27.5534 56.7967 27.9257 56.8624 28.0571C57.023 28.3783 57.0084 28.9697 56.8405 29.3055C56.7018 29.561 55.4023 30.9188 55.3512 30.8458C55.3439 30.8312 55.2125 30.6268 55.0592 30.4005C54.9132 30.1742 54.4971 29.6778 54.1394 29.3055L53.4824 28.6265L54.4825 27.6191C55.03 27.0716 55.4972 26.619 55.5191 26.619C55.541 26.619 55.8257 26.8891 56.1543 27.2176Z" fill="#065F93"/>
<path d="M51.4082 9.94532C49.4663 10.3614 47.9771 12.2157 47.9771 14.2086C47.9771 16.2162 49.4809 18.0632 51.4447 18.4793C52.9339 18.7932 54.3428 18.3625 55.4306 17.282C56.8103 15.895 57.1242 13.8801 56.2117 12.1427C55.8613 11.4711 55.0072 10.6461 54.3282 10.3103C53.3865 9.85772 52.401 9.72631 51.4082 9.94532ZM53.1748 13.0114C53.3427 13.1282 53.5544 13.3691 53.6566 13.5516C54.007 14.2086 53.7296 15.1285 53.0726 15.4643C51.9703 16.0337 50.7438 15.1796 50.9263 13.9604C51.0796 12.9384 52.3207 12.4128 53.1748 13.0114Z" fill="#065F93"/>
<path d="M18.2378 35.1289C18.2119 35.1671 17.6995 36.2954 17.0962 37.6341L16 40.0628V41.9305V43.7982H19.6H23.2L23.213 47.4126L23.2324 51.0333L25.6195 51.0524L28 51.0652V44.9138V38.7624H25.6H23.2V39.4317V40.101H22.227C21.6692 40.101 21.2541 40.0755 21.2541 40.0436C21.2541 40.0118 21.6886 38.8771 22.2205 37.5257L23.1805 35.0652H20.7286C19.0876 35.0652 18.2638 35.0843 18.2378 35.1289Z" fill="#065F93"/>
<path d="M22.0345 20.3513C21.8642 20.3623 21.3352 20.4037 20.869 20.4386C13.7778 20.9584 7.07659 25.123 3.23157 31.3954C1.83481 33.6812 0.772092 36.5525 0.253743 39.4456C0.0483372 40.5547 -0.0913506 44.0351 0.0245114 45.1571C0.688613 51.9948 4.08006 57.9141 9.5975 61.8629C16.896 67.0899 26.856 67.4718 34.5596 62.829C37.9125 60.8005 40.849 57.7899 42.726 54.4507C45.8631 48.8918 46.5283 42.1163 44.5369 36.0565L44.3778 35.5675L44.0532 35.8584C43.8772 36.0122 43.2268 36.6296 42.6127 37.2307L41.496 38.33L41.7271 39.4745C42.2754 42.2942 42.219 45.0361 41.5357 47.8064C40.2731 52.9847 36.8964 57.3899 32.1494 60.0776C28.6466 62.0554 24.2515 62.8801 20.2072 62.3156C12.6161 61.2601 6.36278 55.8248 4.28837 48.4924C3.1295 44.4057 3.28853 40.4434 4.77119 36.4627C6.91484 30.7119 11.6395 26.3519 17.5614 24.6767C21.3044 23.6203 25.2167 23.6879 28.7805 24.8678L29.3977 25.0803L30.7907 23.7775C31.5612 23.0666 32.1934 22.4573 32.2131 22.4134C32.2531 22.3078 29.9718 21.4654 28.7956 21.15C28.2474 21.0029 27.3975 20.7989 26.9006 20.7075C26.0489 20.5482 22.6981 20.2975 22.0345 20.3513Z" fill="#065F93"/>
</svg>
