<svg width="152" height="32" viewBox="0 0 152 32" fill="none" xmlns="http://www.w3.org/2000/svg">
<path d="M140.429 5.27783V26.9428H138.207V5.27783H140.429ZM151.122 20.5544C151.122 21.9247 150.835 23.1098 150.261 24.1097C149.687 25.1096 148.919 25.8781 147.956 26.415C147.012 26.952 145.956 27.2205 144.79 27.2205C143.734 27.2205 142.799 26.952 141.984 26.415C141.188 25.8781 140.558 25.1096 140.096 24.1097C139.651 23.1098 139.429 21.9247 139.429 20.5544C139.429 19.1656 139.651 17.9805 140.096 16.9991C140.558 15.9992 141.188 15.2307 141.984 14.6938C142.799 14.1568 143.734 13.8883 144.79 13.8883C145.956 13.8883 147.012 14.1568 147.956 14.6938C148.919 15.2307 149.687 15.9992 150.261 16.9991C150.835 17.9805 151.122 19.1656 151.122 20.5544ZM148.873 20.5544C148.873 19.573 148.669 18.7397 148.262 18.0546C147.873 17.3695 147.345 16.851 146.678 16.4992C146.03 16.1473 145.308 15.9714 144.512 15.9714C143.864 15.9714 143.225 16.1473 142.595 16.4992C141.966 16.851 141.447 17.3695 141.04 18.0546C140.633 18.7397 140.429 19.573 140.429 20.5544C140.429 21.5358 140.633 22.3691 141.04 23.0542C141.447 23.7393 141.966 24.2578 142.595 24.6096C143.225 24.9615 143.864 25.1374 144.512 25.1374C145.308 25.1374 146.03 24.9615 146.678 24.6096C147.345 24.2578 147.873 23.7393 148.262 23.0542C148.669 22.3691 148.873 21.5358 148.873 20.5544Z" fill="#003757"/>
<path d="M128.995 27.2205C127.81 27.2205 126.754 26.9427 125.829 26.3872C124.921 25.8132 124.208 25.0262 123.69 24.0263C123.19 23.0264 122.94 21.869 122.94 20.5543C122.94 19.2211 123.199 18.0545 123.718 17.0546C124.255 16.0547 124.995 15.277 125.94 14.7215C126.903 14.1659 128.014 13.8882 129.273 13.8882C130.532 13.8882 131.606 14.1567 132.495 14.6937C133.402 15.2122 134.096 15.9621 134.578 16.9435C135.059 17.9249 135.3 19.0915 135.3 20.4432C135.3 20.5728 135.291 20.7117 135.272 20.8599C135.272 20.9895 135.272 21.0728 135.272 21.1098H124.357V19.2211H133.522L132.634 20.4988C132.689 20.4062 132.745 20.2673 132.8 20.0821C132.856 19.8785 132.884 19.7118 132.884 19.5822C132.884 18.823 132.726 18.1656 132.411 17.6101C132.115 17.0546 131.699 16.6194 131.162 16.3047C130.625 15.9899 129.995 15.8325 129.273 15.8325C128.421 15.8325 127.69 16.0176 127.079 16.388C126.486 16.7398 126.023 17.2583 125.69 17.9434C125.375 18.61 125.208 19.434 125.19 20.4154C125.19 21.4154 125.347 22.2672 125.662 22.9708C125.977 23.6744 126.44 24.2114 127.051 24.5818C127.662 24.9521 128.402 25.1373 129.273 25.1373C130.143 25.1373 130.912 24.9521 131.578 24.5818C132.245 24.1929 132.81 23.6096 133.272 22.8319L135.078 23.9707C134.411 25.0447 133.569 25.8595 132.55 26.415C131.55 26.952 130.365 27.2205 128.995 27.2205Z" fill="#003757"/>
<path d="M103.635 14.166H106.135L109.329 22.4709L112.801 13.1938L116.523 22.5264L119.745 14.166H122.245L116.69 27.9149L112.829 18.6101L109.19 27.9149L103.635 14.166Z" fill="#003757"/>
<path d="M93.3424 22.9986C93.3424 23.48 93.4535 23.8967 93.6757 24.2485C93.9164 24.6003 94.2404 24.8688 94.6478 25.054C95.0737 25.2206 95.5551 25.3039 96.0921 25.3039C96.7773 25.3039 97.3883 25.1651 97.9253 24.8873C98.4808 24.6096 98.916 24.2207 99.2308 23.7207C99.5641 23.2023 99.7307 22.6097 99.7307 21.9431L100.175 23.6096C100.175 24.4244 99.9252 25.1003 99.4252 25.6373C98.9438 26.1743 98.342 26.5724 97.6198 26.8316C96.9161 27.0908 96.2125 27.2205 95.5089 27.2205C94.7311 27.2205 93.9997 27.0631 93.3146 26.7483C92.648 26.415 92.111 25.9428 91.7036 25.3317C91.2962 24.7207 91.0925 23.98 91.0925 23.1097C91.0925 21.869 91.5277 20.8784 92.398 20.1377C93.2868 19.3785 94.5182 18.9989 96.0921 18.9989C97.018 18.9989 97.7865 19.11 98.3975 19.3322C99.0271 19.5359 99.5271 19.7766 99.8974 20.0544C100.268 20.3136 100.518 20.5265 100.647 20.6932V21.9987C99.9992 21.5542 99.3326 21.2395 98.6475 21.0543C97.9624 20.8506 97.2309 20.7488 96.4532 20.7488C95.7311 20.7488 95.1385 20.8413 94.6756 21.0265C94.2312 21.2117 93.8979 21.4709 93.6757 21.8042C93.4535 22.1375 93.3424 22.5356 93.3424 22.9986ZM93.009 17.1102L91.9258 15.4714C92.4072 15.1196 93.0646 14.7677 93.8979 14.4159C94.7497 14.0641 95.7681 13.8882 96.9532 13.8882C97.9531 13.8882 98.8234 14.0456 99.5641 14.3604C100.323 14.6566 100.907 15.0918 101.314 15.6658C101.74 16.2398 101.953 16.9435 101.953 17.7768V26.9427H99.7307V18.0823C99.7307 17.6379 99.6567 17.2768 99.5085 16.999C99.3604 16.7028 99.1475 16.4713 98.8697 16.3047C98.6105 16.138 98.3049 16.0176 97.9531 15.9436C97.6013 15.8695 97.2309 15.8325 96.8421 15.8325C96.2125 15.8325 95.6385 15.9065 95.12 16.0547C94.62 16.2028 94.1941 16.3787 93.8423 16.5824C93.4905 16.7861 93.2127 16.962 93.009 17.1102Z" fill="#003757"/>
<path d="M85.9433 19.1655C85.9433 18.1101 85.7118 17.3138 85.2489 16.7768C84.786 16.2398 84.1101 15.9714 83.2213 15.9714C82.5732 15.9714 81.9992 16.1102 81.4992 16.388C81.0178 16.6472 80.6382 17.0176 80.3604 17.499C80.1012 17.9805 79.9716 18.536 79.9716 19.1655V26.9427H77.7495V14.1659H79.9716V16.1658C80.3975 15.3881 80.9252 14.814 81.5548 14.4437C82.2029 14.0734 82.9435 13.8882 83.7768 13.8882C85.1286 13.8882 86.1933 14.3419 86.971 15.2492C87.7672 16.138 88.1654 17.3509 88.1654 18.8878V26.9427H85.9433V19.1655Z" fill="#003757"/>
<path d="M70.9512 14.166H73.1732V26.9428H70.9512V14.166Z" fill="#003757"/>
<path d="M70.9512 14.166H73.1732V26.9428H70.9512V14.166Z" fill="#003757"/>
<path d="M70.5342 8.8885C70.5342 8.4626 70.6823 8.10152 70.9786 7.80525C71.2934 7.50898 71.6545 7.36084 72.0618 7.36084C72.4877 7.36084 72.8488 7.50898 73.1451 7.80525C73.4414 8.10152 73.5895 8.4626 73.5895 8.8885C73.5895 9.29587 73.4414 9.65696 73.1451 9.97175C72.8488 10.268 72.4877 10.4162 72.0618 10.4162C71.6545 10.4162 71.2934 10.268 70.9786 9.97175C70.6823 9.65696 70.5342 9.29587 70.5342 8.8885Z" fill="#C02A0C"/>
<path d="M70.5342 8.8885C70.5342 8.4626 70.6823 8.10152 70.9786 7.80525C71.2934 7.50898 71.6545 7.36084 72.0618 7.36084C72.4877 7.36084 72.8488 7.50898 73.1451 7.80525C73.4414 8.10152 73.5895 8.4626 73.5895 8.8885C73.5895 9.29587 73.4414 9.65696 73.1451 9.97175C72.8488 10.268 72.4877 10.4162 72.0618 10.4162C71.6545 10.4162 71.2934 10.268 70.9786 9.97175C70.6823 9.65696 70.5342 9.29587 70.5342 8.8885Z" fill="#C02A0C"/>
<path d="M61.6145 14.1659H68.0029V16.2491H61.6145V14.1659ZM67.7807 7.94421C67.5955 7.62942 67.3733 7.43499 67.1141 7.36092C66.8733 7.26834 66.6419 7.22205 66.4197 7.22205C66.1419 7.22205 65.9012 7.30537 65.6975 7.47203C65.5123 7.62016 65.3642 7.8794 65.2531 8.24974C65.142 8.62008 65.0865 9.11078 65.0865 9.72185V26.9427H62.8644V9.44409C62.8644 8.42565 63.0125 7.59239 63.3088 6.94429C63.6051 6.29619 64.0217 5.81475 64.5587 5.49996C65.1142 5.16665 65.7808 5 66.5586 5C66.9659 5 67.327 5.05555 67.6418 5.16665C67.9566 5.27775 68.2251 5.41663 68.4473 5.58329C68.688 5.74994 68.8732 5.92585 69.0028 6.11102L67.7807 7.94421Z" fill="#003757"/>
<path d="M56.1877 19.1655C56.1877 18.1101 55.9562 17.3138 55.4933 16.7768C55.0304 16.2398 54.3545 15.9714 53.4657 15.9714C52.8176 15.9714 52.2436 16.1102 51.7436 16.388C51.2622 16.6472 50.8826 17.0176 50.6048 17.499C50.3456 17.9805 50.2159 18.536 50.2159 19.1655V26.9427H47.9939V14.1659H50.2159V16.1658C50.6418 15.3881 51.1696 14.814 51.7992 14.4437C52.4472 14.0734 53.1879 13.8882 54.0212 13.8882C55.3729 13.8882 56.4377 14.3419 57.2154 15.2492C58.0116 16.138 58.4097 17.3509 58.4097 18.8878V26.9427H56.1877V19.1655Z" fill="#003757"/>
<path d="M40.7786 8.8885C40.7786 8.4626 40.9267 8.10152 41.223 7.80525C41.5378 7.50898 41.8988 7.36084 42.3062 7.36084C42.7321 7.36084 43.0932 7.50898 43.3895 7.80525C43.6857 8.10152 43.8339 8.4626 43.8339 8.8885C43.8339 9.29587 43.6857 9.65696 43.3895 9.97175C43.0932 10.268 42.7321 10.4162 42.3062 10.4162C41.8988 10.4162 41.5378 10.268 41.223 9.97175C40.9267 9.65696 40.7786 9.29587 40.7786 8.8885ZM41.1952 14.1659H43.4172V26.9426H41.1952V14.1659Z" fill="#003757"/>
<path d="M16 0C18.0977 0 20.1013 0.403842 21.937 1.13777C21.9431 1.14018 21.9493 1.14269 21.9554 1.14511C22.0269 1.17334 22.0982 1.20227 22.1693 1.23152C22.1983 1.24343 22.2271 1.25559 22.256 1.26766C22.2967 1.28468 22.3374 1.30167 22.378 1.31902C22.4167 1.33559 22.4554 1.35242 22.494 1.36929C22.5371 1.38809 22.58 1.40718 22.6228 1.42636C22.646 1.43672 22.6693 1.44686 22.6924 1.45734C22.7457 1.48148 22.7989 1.50598 22.8519 1.53071C22.8775 1.54262 22.903 1.55453 22.9285 1.56658C22.9981 1.59941 23.0674 1.63274 23.1364 1.66658C23.1621 1.67914 23.1875 1.69219 23.2131 1.70489C23.2548 1.72564 23.2967 1.74627 23.3383 1.76739C23.3725 1.78471 23.4065 1.80227 23.4405 1.81984C23.4859 1.84327 23.5312 1.86689 23.5764 1.89076C23.6005 1.9035 23.6246 1.91621 23.6486 1.92908C23.7007 1.95692 23.7526 1.98516 23.8044 2.01359C23.8257 2.02531 23.8472 2.03682 23.8685 2.04864C23.9325 2.08417 23.9962 2.12036 24.0598 2.15679C24.0942 2.17652 24.1285 2.19658 24.1628 2.21658C24.2027 2.23983 24.2426 2.26307 24.2823 2.28668C24.306 2.30072 24.3295 2.31492 24.353 2.32908C24.4011 2.35801 24.4492 2.38712 24.497 2.41658C24.5234 2.43282 24.5498 2.44908 24.5761 2.46549C24.6165 2.49071 24.6568 2.51626 24.697 2.54185C24.7235 2.55872 24.7502 2.57536 24.7766 2.59239C24.8432 2.63524 24.9093 2.67868 24.9753 2.72255C24.9992 2.73846 25.0229 2.75461 25.0467 2.77065C25.0892 2.79922 25.1315 2.82807 25.1736 2.85707C25.2046 2.87833 25.2355 2.8997 25.2663 2.9212C25.3027 2.94659 25.3391 2.97211 25.3753 2.99783C25.4022 3.01692 25.4292 3.03589 25.456 3.05516C25.5217 3.10246 25.5873 3.15029 25.6525 3.19864C26.6527 3.94182 28.3863 5.70044 29.0821 6.67853C29.5031 7.2698 30.1973 8.52293 30.5696 9.30489C30.5818 9.33047 30.5934 9.35563 30.6049 9.38016C30.6252 9.42352 30.6444 9.46515 30.6622 9.50489C30.673 9.52882 30.6828 9.55224 30.6927 9.57473C30.7087 9.61153 30.7238 9.64619 30.7372 9.6788C30.7537 9.7189 30.7684 9.75552 30.7804 9.78859C30.7839 9.79802 30.7869 9.80721 30.79 9.81603C30.793 9.82479 30.796 9.83317 30.7986 9.8413C30.802 9.85177 30.8049 9.86179 30.8076 9.87119C30.8098 9.87861 30.8118 9.88566 30.8136 9.89239C30.8157 9.9004 30.8173 9.90793 30.8188 9.91495C30.82 9.92083 30.821 9.92635 30.8217 9.93152C30.8228 9.93834 30.8231 9.94447 30.8234 9.95C30.8237 9.95608 30.8241 9.96129 30.8234 9.96576C30.8233 9.96612 30.8234 9.9665 30.8234 9.96685C31.266 11.0532 31.5927 12.1992 31.788 13.3894C31.7886 13.391 31.7889 13.3929 31.7894 13.3946C31.7957 13.4154 31.8019 13.4396 31.8082 13.4668C31.8431 13.6198 31.8766 13.8698 31.9054 14.1715C31.9067 14.1846 31.9077 14.1978 31.909 14.2111C31.9233 14.3653 31.9368 14.5321 31.9484 14.7057C31.9826 15.1326 32 15.5643 32 16C32 16.0202 31.9995 16.0404 31.9995 16.0606C31.9996 16.0871 31.9994 16.1133 31.9995 16.1394C32.0001 16.3833 31.996 16.6091 31.9845 16.7992C31.9826 16.8312 31.9796 16.8632 31.9775 16.8951C31.9716 16.984 31.9655 17.0726 31.9584 17.1609C31.9581 17.1654 31.9577 17.1699 31.9573 17.1745C31.3587 25.4259 24.503 31.9414 16.1125 31.9992C16.1121 31.9992 16.1116 31.9992 16.1111 31.9992C16.0914 31.9994 16.0716 31.9994 16.0519 31.9995C16.0475 31.9995 16.043 31.9997 16.0386 31.9997C16.0258 31.9998 16.0128 32 16 32C10.5399 31.9999 5.7185 29.265 2.83126 25.0902C2.75044 24.9763 2.67068 24.8608 2.59213 24.7443C2.58135 24.7283 2.57077 24.7122 2.56006 24.6962C2.08951 23.9928 1.69162 23.286 1.35517 22.5465C1.32872 22.4883 1.30261 22.43 1.27691 22.3715C0.814003 21.3167 0.472156 20.1921 0.217943 18.9152C0.0651346 18.1503 0.0158845 17.6999 0.00381273 16.6459C0.00337851 16.6078 0.00279265 16.5688 0.00245403 16.5291C0.00133316 16.3983 0.000777649 16.2585 0.000551858 16.1082C0.000530491 16.0938 0.000294462 16.0792 0.000280119 16.0647C0.000194839 16.0432 8.38013e-06 16.0215 8.38013e-06 16C8.97299e-06 15.9805 0.000210565 15.961 0.000280119 15.9416C0.000283504 15.9285 6.40825e-05 15.9154 8.38013e-06 15.9022C2.1324e-05 15.8815 -1.57858e-05 15.8607 8.38013e-06 15.8397C0.0028992 13.6294 0.141648 12.7233 0.764139 10.8576C2.55742 5.48205 7.2628 1.35504 12.8073 0.295109C13.0604 0.246747 13.3139 0.204598 13.5677 0.168207C13.5794 0.16653 13.591 0.164695 13.6027 0.163043C13.6601 0.154947 13.7174 0.147163 13.7747 0.139674C13.7819 0.13874 13.7891 0.137881 13.7962 0.136957C13.8453 0.130611 13.8944 0.124379 13.9435 0.118478C13.9714 0.115127 13.9993 0.111903 14.0272 0.108696C14.0726 0.103477 14.1179 0.0985902 14.1633 0.09375C14.1737 0.0926396 14.1842 0.0915795 14.1946 0.0904891C14.7728 0.0299262 15.3513 -9.79343e-06 15.928 0.000271739C15.9351 0.000275 15.9421 0.000259442 15.9492 0.000271739C15.9661 0.000219151 15.9831 9.35388e-07 16 0Z" fill="#E6ECEF"/>
<path d="M3.49213 5.91549C3.51516 5.88717 3.53819 5.85886 3.56142 5.83071L3.65354 5.72065C3.75085 5.60484 3.8498 5.49045 3.95028 5.37745C3.93876 5.39037 3.92696 5.40306 3.91549 5.41603C3.96824 5.35632 4.02139 5.29696 4.07501 5.23804C6.36138 2.72577 9.4286 0.941021 12.8073 0.295109C13.9326 0.0800524 15.0668 -0.0160547 16.1921 0.00244565C16.1271 0.00137664 16.0619 0.000573004 15.9967 0.000271739H15.9492C15.9661 0.000219273 15.9831 1.93545e-06 16 0C18.0977 0 20.1013 0.403875 21.937 1.13777C21.9422 1.13984 21.9477 1.14193 21.953 1.14402C21.8308 1.09581 21.708 1.0493 21.5848 1.00408C22.1078 1.19598 22.6213 1.41478 23.1231 1.66005C23.1251 1.66105 23.1273 1.66205 23.1294 1.66304C23.1499 1.67311 23.1705 1.68352 23.191 1.69375C24.05 2.11858 24.8743 2.62092 25.6525 3.19864C26.6527 3.94187 28.3861 5.70075 29.0818 6.6788C29.6995 7.54623 30.9059 9.83732 30.8201 9.9769C30.7901 10.025 30.6188 10.0636 30.4397 10.0636C30.1448 10.0636 30.1072 10.0953 30.059 10.3764C30.0301 10.5488 29.6601 13.1278 29.2361 16.1082C28.8122 19.0882 28.4044 21.6698 28.3302 21.8476C28.0816 22.4415 27.4582 22.663 27.0236 22.3117C26.8194 22.1461 26.6748 21.7889 24.7351 16.6337L24.0008 14.6842H22.9571C22.383 14.6842 21.9128 14.7017 21.9125 14.7228C21.9125 14.744 22.1072 15.2755 22.3462 15.9022C22.5841 16.5294 22.7797 17.099 22.7799 17.1679C22.7799 17.3258 21.1872 21.7291 20.9973 22.097C20.7574 22.561 20.3756 22.7958 19.9535 22.7399C19.544 22.6851 19.2741 22.4821 19.0361 22.0489C18.8993 21.8005 18.8695 21.2498 18.8204 18.15C18.7722 15.0639 18.7384 14.463 18.5929 14.0106C17.957 12.04 16.5684 10.5968 14.7337 10.0019C13.7653 9.68712 12.295 9.6485 11.313 9.91223C9.25673 10.4629 7.55589 12.2035 7.0731 14.2511C6.94687 14.7854 6.80811 24.6962 6.92664 24.6962C7.01891 24.6956 8.78526 23.3657 8.86522 23.2367C8.8999 23.1792 8.92224 21.4381 8.91549 19.3668C8.90779 17.2942 8.94244 15.3283 8.99158 14.9981C9.4002 12.268 12.3682 10.8741 14.8726 12.2353C15.442 12.5453 16.0287 13.1432 16.3169 13.7092C16.7562 14.5698 16.8054 15.0242 16.8054 18.253C16.8054 19.9289 16.8488 21.5337 16.9027 21.8187C16.9557 22.1047 17.1293 22.6034 17.2883 22.9288C18.0525 24.4883 19.8968 25.1863 21.3614 24.4701C22.3154 24.0042 22.7144 23.3908 23.4573 21.2527C23.6828 20.6031 23.8851 20.089 23.9073 20.1109C23.9295 20.132 24.1615 20.7252 24.4236 21.428C24.97 22.8932 25.2487 23.4119 25.6929 23.7864C27.1547 25.0215 29.3373 24.4691 30.1506 22.6592C30.4069 22.0884 30.4994 21.5385 31.4245 15.0443C31.5661 14.0509 31.7134 13.2713 31.7519 13.3117C31.8992 13.4638 32.0471 15.6795 31.9853 16.7745C31.9849 16.7827 31.985 16.791 31.9845 16.7992C31.9838 16.8108 31.9827 16.8224 31.9818 16.834C31.9747 16.9479 31.9665 17.0614 31.9573 17.1745C31.3599 25.4098 24.5298 31.9156 16.1617 31.9984C16.1176 31.999 16.0736 31.9997 16.0296 31.9997C16.0198 31.9998 16.0098 32 16 32C10.54 31.9999 5.71848 29.265 2.83126 25.0902C2.8167 25.0697 2.80226 25.0489 2.78778 25.0283C2.77969 25.0167 2.77167 25.005 2.76359 24.9935C2.77005 25.0027 2.77669 25.012 2.78316 25.0212C2.7189 24.9297 2.65521 24.8374 2.5924 24.7443H2.59213C2.60073 24.7571 2.60958 24.7699 2.61821 24.7826C2.60961 24.7699 2.60069 24.7573 2.59213 24.7446C2.55489 24.6893 2.51787 24.6338 2.48153 24.5785C2.44516 24.5232 2.40913 24.4677 2.37365 24.4122C2.25275 24.2233 2.13722 24.0337 2.02636 23.8432C2.02016 23.8325 2.01406 23.8218 2.00789 23.8111C1.8767 23.5844 1.75225 23.3562 1.63452 23.1253C1.63787 23.1318 1.64148 23.1383 1.64484 23.1448C1.6326 23.1209 1.62026 23.0971 1.60816 23.0731C1.61427 23.0852 1.62021 23.0974 1.62636 23.1095C1.6158 23.0887 1.60557 23.0678 1.59511 23.047C1.5912 23.0392 1.58732 23.0314 1.58343 23.0236C1.57194 23.0007 1.56056 22.9776 1.54919 22.9546C1.56441 22.9855 1.57967 23.0163 1.59511 23.047C1.57325 23.0035 1.5513 22.96 1.5299 22.9163C1.48194 22.8184 1.43539 22.7199 1.38968 22.6209C1.38278 22.606 1.37587 22.5911 1.36903 22.5761C1.36061 22.5577 1.3521 22.5394 1.34376 22.5209C1.3375 22.5071 1.33149 22.4932 1.32528 22.4793C1.31278 22.4515 1.30037 22.4236 1.28805 22.3957C1.2789 22.3749 1.26966 22.3542 1.2606 22.3334C1.25592 22.3227 1.2514 22.3119 1.24674 22.3011C1.2433 22.2931 1.23985 22.2851 1.23642 22.2772C1.23233 22.2677 1.22826 22.2582 1.22419 22.2486C1.20898 22.2131 1.19375 22.1776 1.17881 22.1418C1.17779 22.1394 1.17684 22.1369 1.17582 22.1345C1.16619 22.1114 1.15654 22.0884 1.14702 22.0652C0.749331 21.0991 0.447712 20.0693 0.21794 18.9152C0.0310238 17.9796 -0.00164819 17.5146 0.000277336 15.8397C0.00134062 15.0267 0.0209577 14.3901 0.0760926 13.8174C0.0755595 13.8229 0.0747168 13.8284 0.0741904 13.834C0.0757607 13.8173 0.077166 13.8005 0.0788099 13.784C0.0821376 13.7504 0.08637 13.7171 0.0899513 13.684C0.0937841 13.6485 0.0975045 13.6133 0.101636 13.5783C0.106312 13.5385 0.110968 13.4991 0.116038 13.4598C0.123687 13.4007 0.132187 13.342 0.140766 13.2837C0.149558 13.2238 0.158939 13.1643 0.168756 13.1049C0.173334 13.0772 0.177806 13.0496 0.182614 13.022C0.191596 12.9704 0.201067 12.9189 0.210875 12.8674C0.21469 12.8474 0.218618 12.8274 0.22256 12.8073C0.231458 12.7621 0.239896 12.7166 0.249462 12.6712L0.292397 12.4802C0.338519 12.2796 0.391077 12.0751 0.451636 11.8611C0.450137 11.8664 0.448506 11.8716 0.447017 11.8769C0.452236 11.8584 0.457164 11.8396 0.462506 11.8209C0.478277 11.7658 0.495005 11.71 0.511962 11.6535C0.506463 11.672 0.501326 11.6906 0.49593 11.709C0.573577 11.4444 0.662235 11.1638 0.764408 10.8576C1.24499 9.41702 1.9348 8.06619 2.79376 6.83995C2.83612 6.77924 2.87872 6.71871 2.92202 6.6587C2.97304 6.58796 3.02475 6.51769 3.07691 6.44783C3.12192 6.38752 3.16748 6.32759 3.21332 6.26793C3.18925 6.29926 3.16569 6.33099 3.14185 6.3625C3.25614 6.2115 3.37266 6.06227 3.49213 5.91549ZM19.7448 31.5288C19.4206 31.6071 19.0922 31.6755 18.7598 31.7345C18.6766 31.7493 18.5932 31.7634 18.5095 31.7769C18.196 31.8277 17.8789 31.8697 17.5582 31.9035C18.3067 31.8246 19.0355 31.7 19.7448 31.5288ZM13.1304 31.6946C13.2676 31.7188 13.4054 31.7414 13.5438 31.7622C13.4054 31.7414 13.2676 31.7188 13.1304 31.6946ZM20.4679 31.3361V31.3364V31.3361ZM23.0033 30.3516C22.8551 30.4246 22.7059 30.4952 22.5557 30.5633C22.2553 30.6996 21.951 30.8263 21.6427 30.9432C21.4115 31.0309 21.1781 31.1131 20.9424 31.1899L21.1775 31.1114C21.802 30.8969 22.4104 30.6436 23.0033 30.3516ZM23.6636 30.0068H23.6639H23.6636ZM25.6595 28.6891C25.8073 28.5722 25.9588 28.4488 26.1114 28.3204C25.9588 28.4488 25.8073 28.5722 25.6595 28.6891ZM27.9275 26.613C27.8481 26.6973 27.7655 26.7829 27.6804 26.8696C27.7655 26.7829 27.8481 26.6973 27.9275 26.613ZM5.38778 10.4649C5.33767 10.334 5.20471 10.49 4.01658 12.0736L3.41142 12.8802V24.703L5.38669 24.6481L5.41169 17.6207C5.42518 13.7566 5.41474 10.537 5.38778 10.4649ZM0.0320708 17.5601C0.0327813 17.5716 0.0335054 17.5832 0.0342447 17.5946C0.0334758 17.5827 0.0325357 17.5707 0.0317991 17.5587C0.0318262 17.5591 0.0320218 17.5596 0.0320708 17.5601ZM0.000549075 16.1076C0.000527237 16.0934 0.00029147 16.079 0.000277336 16.0647C0.000191899 16.0432 5.59691e-06 16.0215 5.59691e-06 16L0.000549075 16.1076ZM0.000277336 15.9416C0.00025025 15.9491 5.41724e-05 15.9568 5.59691e-06 15.9644C6.75043e-06 15.9439 -7.55422e-06 15.9231 5.59691e-06 15.9022C6.11316e-05 15.9154 0.000279736 15.9286 0.000277336 15.9416ZM5.59691e-06 15.8386C0.000142832 15.7354 0.000601791 15.635 0.00136429 15.5372L0.00245125 15.4397C0.00112663 15.5679 0.000188479 15.7008 5.59691e-06 15.8386ZM5.26713 6.56223C4.17635 5.99913 3.02582 6.58438 3.02582 7.70299C3.02679 8.30465 3.27348 8.73504 3.76876 8.99592C4.26212 9.25585 4.71039 9.24516 5.19702 8.95924C6.11813 8.42009 6.15843 7.02333 5.26713 6.56223ZM13.4929 0.179076C13.5174 0.175459 13.5419 0.171714 13.5663 0.168207C13.5784 0.166472 13.5906 0.16475 13.6027 0.163043C13.6119 0.161746 13.6213 0.16052 13.6304 0.159239C13.5846 0.165632 13.5387 0.172295 13.4929 0.179076ZM13.9255 0.120652C13.937 0.119259 13.9486 0.117942 13.9601 0.116576C13.9741 0.114898 13.9884 0.113055 14.0025 0.111413C14.0198 0.109392 14.0373 0.1074 14.0546 0.105435C14.0116 0.110309 13.9685 0.115438 13.9255 0.120652ZM17.6245 0.0883152C17.6865 0.0947462 17.7484 0.101565 17.8103 0.108696C17.7484 0.101568 17.6865 0.0947438 17.6245 0.0883152ZM1.16713 22.113C1.17009 22.1202 1.17285 22.1274 1.17582 22.1345C1.17567 22.1341 1.17543 22.1338 1.17528 22.1334C1.17246 22.1267 1.16993 22.1198 1.16713 22.113ZM2.68452 6.9981C2.67673 7.00951 2.66891 7.0209 2.66115 7.03234C2.66415 7.02791 2.66711 7.02345 2.67011 7.01902C2.67488 7.01202 2.67974 7.00509 2.68452 6.9981ZM3.51006 5.89375C3.47788 5.93314 3.44567 5.97252 3.41386 6.01223C3.4398 5.97986 3.46595 5.94766 3.49213 5.91549C3.49806 5.9082 3.50412 5.90103 3.51006 5.89375ZM28.6304 25.7951C28.6554 25.763 28.6805 25.7311 28.7052 25.6989C28.6805 25.7311 28.6554 25.763 28.6304 25.7951Z" fill="url(#paint0_radial_51_268)"/>
<defs>
<radialGradient id="paint0_radial_51_268" cx="0" cy="0" r="1" gradientTransform="matrix(11.3289 23.9999 -24 11.307 4.67123 8.00005)" gradientUnits="userSpaceOnUse">
<stop stop-color="#C02A0C"/>
<stop offset="0.34" stop-color="#C0720C"/>
<stop offset="1" stop-color="#065F93"/>
</radialGradient>
</defs>
</svg>
