<svg width="102" height="102" viewBox="0 0 102 102" fill="none" xmlns="http://www.w3.org/2000/svg">
<path d="M11.1311 18.8556C11.2046 18.7654 11.278 18.6751 11.352 18.5854L11.6457 18.2346C11.9558 17.8654 12.2712 17.5008 12.5915 17.1406C12.5548 17.1818 12.5172 17.2222 12.4806 17.2636C12.6488 17.0733 12.8182 16.884 12.9891 16.6963C20.2769 8.68838 30.0537 2.9995 40.8234 0.940659C44.41 0.255167 48.0256 -0.0511743 51.6124 0.00779552C51.405 0.00438803 51.1972 0.00182645 50.9896 0.000866168H50.838C50.8918 0.000698933 50.9462 6.16924e-06 51 0C57.6863 0 64.0729 1.28735 69.9241 3.62665C69.9408 3.63324 69.9584 3.63991 69.9752 3.64657C69.5858 3.49291 69.1944 3.34463 68.8015 3.20049C70.4686 3.81219 72.1055 4.50962 73.7049 5.29142C73.7114 5.29459 73.7183 5.29779 73.7248 5.30095C73.7904 5.33304 73.8561 5.36623 73.9214 5.39883C76.6592 6.75298 79.2868 8.35417 81.7672 10.1957C84.9555 12.5647 90.4807 18.1711 92.6982 21.2887C94.6671 24.0536 98.5125 31.3564 98.2391 31.8014C98.1434 31.9546 97.5973 32.0776 97.0265 32.0777C96.0866 32.0777 95.9666 32.1786 95.813 33.0746C95.7208 33.6242 94.5417 41.8447 93.1902 51.3447C91.8389 60.8438 90.5392 69.0726 90.3024 69.6391C89.51 71.5323 87.5231 72.2383 86.1379 71.1185C85.4867 70.5907 85.0259 69.452 78.843 53.0199L76.5026 46.806H73.1757C71.3458 46.806 69.8471 46.8615 69.8461 46.929C69.8461 46.9965 70.4668 48.6906 71.2285 50.6882C71.9867 52.6876 72.6102 54.5031 72.6109 54.7228C72.6109 55.226 67.5342 69.2614 66.9289 70.4342C66.1641 71.9133 64.9472 72.6616 63.6019 72.4836C62.2966 72.3086 61.4363 71.6617 60.6777 70.2809C60.2416 69.4892 60.1466 67.7338 59.99 57.8531C59.8364 48.0162 59.7287 46.101 59.265 44.6588C57.2378 38.3775 52.8118 33.7774 46.9637 31.8811C43.877 30.8777 39.1902 30.7546 36.0603 31.5952C29.5058 33.3504 24.0844 38.8986 22.5455 45.4253C22.1432 47.1284 21.7009 78.7191 22.0787 78.7191C22.3728 78.7172 28.003 74.478 28.2579 74.0669C28.3684 73.8838 28.4396 68.334 28.4181 61.7318C28.3936 55.1252 28.504 48.8589 28.6607 47.8064C29.9631 39.1042 39.4235 34.6612 47.4063 39.0001C49.2215 39.9882 51.0916 41.894 52.01 43.6982C53.4105 46.4414 53.5673 47.8897 53.5673 58.1814C53.5673 63.5235 53.7054 68.6386 53.8774 69.5473C54.0464 70.4586 54.5997 72.0484 55.1065 73.0856C57.5423 78.0564 63.4209 80.2813 68.0895 77.9985C71.1303 76.5133 72.4022 74.5583 74.7703 67.743C75.4888 65.6724 76.1337 64.0337 76.2047 64.1034C76.2753 64.1709 77.0149 66.0617 77.8504 68.3017C79.5919 72.972 80.4803 74.6255 81.8963 75.8192C86.5557 79.7561 93.5125 77.9952 96.1049 72.2263C96.9219 70.4067 97.2168 68.6541 100.165 47.9537C100.617 44.7871 101.086 42.3021 101.209 42.431C101.679 42.9158 102.15 49.9785 101.953 53.4686C101.952 53.4949 101.952 53.5215 101.951 53.5474C101.948 53.5843 101.945 53.6214 101.942 53.6583C101.919 54.0215 101.893 54.3833 101.864 54.7436C99.9597 80.9937 78.1889 101.731 51.5154 101.995C51.3747 101.997 51.2345 101.999 51.0944 101.999C51.0631 101.999 51.0312 102 51 102C33.5961 102 18.2276 93.2821 9.02463 79.9751C8.97824 79.9096 8.9322 79.8433 8.88604 79.7776C8.86025 79.7409 8.83469 79.7035 8.80895 79.6667C8.82953 79.6961 8.85069 79.7257 8.87132 79.7551C8.66649 79.4633 8.46347 79.1693 8.26327 78.8724H8.2624C8.28983 78.9131 8.31803 78.954 8.34555 78.9946C8.31812 78.9542 8.28971 78.9138 8.2624 78.8733C8.14371 78.6972 8.0257 78.5204 7.90987 78.3441C7.79395 78.1676 7.67909 77.9907 7.566 77.814C7.18064 77.2119 6.8124 76.6076 6.45904 76.0002C6.43925 75.9662 6.41982 75.932 6.40014 75.898C5.98198 75.1752 5.58531 74.4477 5.21002 73.7118C5.2207 73.7327 5.23222 73.7532 5.24294 73.7742C5.2039 73.6979 5.16459 73.6219 5.126 73.5455C5.14549 73.5841 5.16443 73.623 5.18404 73.6616C5.15037 73.5954 5.11775 73.5287 5.08443 73.4623C5.07196 73.4375 5.0596 73.4127 5.04718 73.3879C5.01055 73.3146 4.97428 73.2412 4.93804 73.1678C4.98655 73.2661 5.03519 73.3644 5.08443 73.4623C5.01474 73.3236 4.94478 73.1851 4.87655 73.0457C4.72367 72.7337 4.57531 72.4196 4.4296 72.1042C4.40762 72.0566 4.3856 72.009 4.36377 71.9613C4.33695 71.9027 4.30981 71.8442 4.28322 71.7854C4.26329 71.7414 4.24411 71.697 4.22432 71.6529C4.1845 71.5641 4.14494 71.4752 4.10566 71.3861C4.0765 71.32 4.04703 71.2541 4.01817 71.1878C4.00325 71.1535 3.98884 71.119 3.974 71.0847C3.96301 71.0593 3.95203 71.0339 3.94108 71.0085C3.92805 70.9782 3.91508 70.9479 3.90211 70.9175C3.85364 70.8043 3.80507 70.6909 3.75746 70.5771C3.75421 70.5694 3.75117 70.5615 3.74793 70.5537C3.71722 70.4802 3.68647 70.4067 3.65612 70.3329C2.38849 67.2534 1.42708 63.971 0.694685 60.2923C0.0988884 57.3099 -0.00525362 55.8277 0.000884009 50.489C0.00427321 47.8976 0.0668027 45.8684 0.242545 44.0429C0.240846 44.0606 0.23816 44.0781 0.236482 44.0958C0.241487 44.0426 0.245967 43.9893 0.251207 43.9364C0.261814 43.8294 0.275304 43.7234 0.28672 43.6176C0.298937 43.5047 0.310796 43.3924 0.323965 43.2807C0.33887 43.1541 0.353709 43.0282 0.369872 42.9031C0.394252 42.7146 0.421347 42.5278 0.448693 42.3418C0.476717 42.1509 0.506618 41.9611 0.537908 41.7718C0.552502 41.6837 0.566758 41.5956 0.582083 41.5077C0.610712 41.3432 0.640901 41.1791 0.672165 41.0148C0.684324 40.951 0.696844 40.8872 0.70941 40.8234C0.737772 40.6792 0.76467 40.5341 0.795161 40.3894L0.932015 39.7805C1.07903 39.1411 1.24656 38.4893 1.43959 37.8074C1.43481 37.8242 1.42961 37.8409 1.42487 37.8576C1.4415 37.7985 1.45721 37.7387 1.47424 37.6792C1.52451 37.5034 1.57783 37.3257 1.63188 37.1456C1.61435 37.2046 1.59798 37.2638 1.58078 37.3223C1.82828 36.4792 2.11087 35.5847 2.43655 34.6086C3.96841 30.0167 6.16718 25.711 8.9051 21.8023C9.04013 21.6088 9.17593 21.4159 9.31393 21.2246C9.47657 20.9991 9.6414 20.7752 9.80764 20.5524C9.95113 20.3602 10.0963 20.1692 10.2425 19.979C10.1657 20.0789 10.0906 20.18 10.0147 20.2805C10.3789 19.7992 10.7504 19.3235 11.1311 18.8556ZM62.9367 100.498C61.9031 100.747 60.8564 100.966 59.7968 101.154C59.5317 101.201 59.2658 101.246 58.9991 101.289C57.9998 101.451 56.989 101.585 55.9666 101.693C58.3526 101.441 60.6756 101.044 62.9367 100.498ZM41.8533 101.026C42.2905 101.104 42.7297 101.176 43.1707 101.242C42.7298 101.176 42.2905 101.104 41.8533 101.026ZM65.2416 99.8839V99.8848V99.8839ZM73.3229 96.7458C72.8505 96.9785 72.375 97.2034 71.8963 97.4206C70.9388 97.855 69.9688 98.2587 68.986 98.6315C68.2491 98.911 67.5051 99.1731 66.7539 99.418L67.5031 99.1676C69.4938 98.4838 71.4333 97.6764 73.3229 96.7458ZM75.4277 95.6467H75.4286H75.4277ZM81.7897 91.4466C82.2608 91.0738 82.7438 90.6805 83.2302 90.2712C82.7438 90.6805 82.2608 91.0738 81.7897 91.4466ZM89.0188 84.8291C88.7657 85.0976 88.5026 85.3706 88.2314 85.6467C88.5026 85.3706 88.7657 85.0976 89.0188 84.8291ZM17.1735 33.357C17.0138 32.9397 16.59 33.437 12.8029 38.4847L10.8739 41.0555V78.7408L17.1701 78.5658L17.2498 56.1658C17.2928 43.8491 17.2595 33.5866 17.1735 33.357ZM0.102226 55.9727C0.10449 56.0095 0.106799 56.0463 0.109155 56.0827C0.106704 56.0449 0.103707 56.0066 0.10136 55.9683C0.101446 55.9697 0.102069 55.9713 0.102226 55.9727ZM0.00175018 51.343C0.00168057 51.2979 0.000929059 51.2519 0.000884009 51.2061C0.000611677 51.1377 1.78402e-05 51.0685 1.78402e-05 51L0.00175018 51.343ZM0.000884009 50.8138C0.000797671 50.8379 0.000172674 50.8623 1.78402e-05 50.8865C2.1517e-05 50.8211 -2.40791e-05 50.7548 1.78402e-05 50.6882C0.000194857 50.7302 0.000891659 50.7723 0.000884009 50.8138ZM1.78402e-05 50.4855C0.000455275 50.1566 0.00191821 49.8364 0.00434868 49.5249L0.00781336 49.214C0.00359112 49.6227 0.000600776 50.0462 1.78402e-05 50.4855ZM16.789 20.9171C13.3121 19.1222 9.6448 20.9877 9.6448 24.5533C9.64789 26.4711 10.4342 27.8429 12.0129 28.6745C13.5855 29.503 15.0144 29.4689 16.5655 28.5576C19.5015 26.839 19.63 22.3869 16.789 20.9171ZM43.0087 0.570805C43.0866 0.559276 43.1647 0.547337 43.2426 0.536158C43.2811 0.530631 43.3201 0.525142 43.3587 0.519701C43.388 0.515565 43.4177 0.511658 43.447 0.507575C43.301 0.527952 43.1547 0.54919 43.0087 0.570805ZM44.3877 0.384579C44.4242 0.380139 44.4611 0.375941 44.4977 0.371586C44.5426 0.366238 44.5879 0.360364 44.6328 0.355129C44.6881 0.348687 44.7438 0.342337 44.7991 0.336073C44.6621 0.35161 44.5247 0.367957 44.3877 0.384579ZM56.178 0.281505C56.3756 0.302003 56.5731 0.32374 56.7704 0.346467C56.5731 0.323748 56.3756 0.301996 56.178 0.281505ZM3.72021 70.4853C3.72966 70.508 3.73845 70.5311 3.74793 70.5537C3.74743 70.5526 3.74669 70.5515 3.7462 70.5503C3.73721 70.5288 3.72917 70.5069 3.72021 70.4853ZM8.5569 22.3064C8.53207 22.3428 8.50715 22.3791 8.48241 22.4156C8.49199 22.4015 8.5014 22.3872 8.51099 22.3731C8.52617 22.3508 8.54168 22.3287 8.5569 22.3064ZM11.1883 18.7863C11.0857 18.9119 10.9831 19.0374 10.8817 19.164C10.9644 19.0608 11.0477 18.9582 11.1311 18.8556C11.1501 18.8324 11.1694 18.8095 11.1883 18.7863ZM91.2595 82.2219C91.3391 82.1196 91.4191 82.0179 91.4977 81.9153C91.4191 82.0179 91.3391 82.1196 91.2595 82.2219Z" fill="#F2F2F3"/>
</svg>
