<svg width="30" height="30" viewBox="0 0 30 30" fill="none" xmlns="http://www.w3.org/2000/svg">
<g clip-path="url(#clip0_705_94)">
<path opacity="0.983" fill-rule="evenodd" clip-rule="evenodd" d="M29.9707 3.60352C29.9707 9.44338 29.9707 15.2832 29.9707 21.123C29.9274 21.1307 29.8883 21.1209 29.8535 21.0938C29.1194 20.3401 28.3675 19.6076 27.5977 18.8965C27.5684 15.9083 27.5586 12.92 27.5684 9.93164C19.1504 9.93164 10.7324 9.93164 2.31445 9.93164C2.30469 14.8536 2.31445 19.7754 2.34375 24.6973C2.41178 25.2537 2.71451 25.615 3.25195 25.7813C8.17383 25.8008 13.0957 25.8203 18.0176 25.8398C18.8272 26.6007 19.628 27.3721 20.4199 28.1543C14.6193 28.2227 8.81848 28.2324 3.01758 28.1836C1.38662 27.8904 0.370989 26.9431 -0.0292969 25.3418C-0.0292969 18.0371 -0.0292969 10.7324 -0.0292969 3.42773C0.350739 1.90515 1.30777 0.957885 2.8418 0.585938C10.9082 0.546875 18.9746 0.546875 27.041 0.585938C28.6845 0.949981 29.661 1.95584 29.9707 3.60352ZM3.48633 2.90039C11.1426 2.89062 18.7989 2.90039 26.4551 2.92969C27.0115 2.99772 27.3728 3.30045 27.5391 3.83789C27.5684 5.06821 27.5781 6.29865 27.5684 7.5293C19.1504 7.5293 10.7324 7.5293 2.31445 7.5293C2.28916 6.25746 2.31846 4.98792 2.40234 3.7207C2.6025 3.22598 2.96382 2.95254 3.48633 2.90039Z" fill="#065F93"/>
<path opacity="0.947" fill-rule="evenodd" clip-rule="evenodd" d="M5.18559 4.01367C6.28715 4.20461 6.64844 4.82961 6.26958 5.88867C5.816 6.43588 5.25936 6.56285 4.59965 6.26953C3.97215 5.72994 3.88425 5.11471 4.33598 4.42383C4.58326 4.19754 4.86647 4.06082 5.18559 4.01367Z" fill="#065F93"/>
<path opacity="0.946" fill-rule="evenodd" clip-rule="evenodd" d="M9.28712 4.01367C10.3163 4.17425 10.6971 4.76019 10.4297 5.77148C9.91759 6.47953 9.28284 6.6065 8.5254 6.15234C7.96437 5.51049 7.98388 4.88549 8.584 4.27734C8.80671 4.13576 9.04109 4.04787 9.28712 4.01367Z" fill="#065F93"/>
<path opacity="0.971" fill-rule="evenodd" clip-rule="evenodd" d="M29.9707 24.3457C29.9707 24.3848 29.9707 24.4238 29.9707 24.4629C28.3337 26.1292 26.6833 27.7894 25.0195 29.4434C22.207 26.709 19.3945 23.9746 16.582 21.2402C16.2872 20.8462 16.0529 20.4165 15.8789 19.9512C15.4305 18.0411 15.0204 16.1271 14.6484 14.209C16.4691 14.6435 18.2953 15.0634 20.127 15.4688C20.7834 15.6797 21.3693 16.0117 21.8848 16.4648C24.5707 19.1057 27.266 21.7326 29.9707 24.3457ZM20.0684 18.1348C22.2618 20.2012 24.4298 22.3008 26.5723 24.4336C26.0351 24.9707 25.4981 25.5078 24.9609 26.0449C22.8206 23.9241 20.6624 21.8244 18.4863 19.7461C19.0255 19.2167 19.5529 18.6796 20.0684 18.1348Z" fill="#065F93"/>
</g>
<defs>
<clipPath id="clip0_705_94">
<rect width="30" height="30" fill="white"/>
</clipPath>
</defs>
</svg>
