<svg width="32" height="32" viewBox="0 0 32 32" fill="none" xmlns="http://www.w3.org/2000/svg">
<path d="M16 0C24.8366 0 32 7.16344 32 16C32 24.8366 24.8366 32 16 32C7.16344 32 0 24.8366 0 16C0 7.16344 7.16344 0 16 0ZM16.2129 4.84082C15.6611 4.84108 15.2133 5.28903 15.2129 5.84082L15.209 19.8008C15.1717 20.8327 14.318 21.6629 13.2812 21.6631C12.6424 21.6629 12.0721 21.3477 11.71 20.8525L11.7158 20.8496C11.4853 20.5316 11.3496 20.1452 11.3496 19.7236C11.35 18.6574 12.2188 17.79 13.2822 17.79C13.4692 17.7901 13.6614 17.8224 13.8525 17.8818C14.1559 17.9759 14.4864 17.9198 14.7422 17.7314C14.9976 17.543 15.1493 17.2442 15.1494 16.9268V13.3604C15.1492 12.8595 14.7777 12.4356 14.2812 12.3691C14.0437 12.3374 13.797 12.3135 13.541 12.3037L13.2822 12.2988C13.2493 12.2988 13.2135 12.3002 13.2002 12.3008C13.1795 12.3017 13.1553 12.3033 13.1309 12.3047C13.0813 12.3074 13.0198 12.311 12.9619 12.3145C12.9414 12.3157 12.9208 12.3162 12.9014 12.3174C8.98321 12.5092 5.85766 15.7579 5.85742 19.7285C5.85742 21.6812 6.61583 23.4597 7.84961 24.7871L7.85059 24.7881C9.20372 26.2402 11.1379 27.1581 13.2812 27.1582C17.3734 27.158 20.7061 23.8278 20.7061 19.7285V14.3564C21.8817 14.8907 23.1874 15.1904 24.5605 15.1904C25.1127 15.1902 25.5605 14.7426 25.5605 14.1904V10.6992C25.5601 10.1475 25.1124 9.6994 24.5605 9.69922C24.279 9.69921 24.0104 9.66985 23.7549 9.61426L23.75 9.61328L23.4453 9.53516C22.7467 9.32422 22.128 8.91359 21.6523 8.36816V8.36719C21.061 7.68912 20.7061 6.80767 20.7061 5.84082C20.7058 5.28886 20.258 4.841 19.7061 4.84082H18.7734V5.84082H18.7676V4.84082H16.2129ZM18.7734 6.72363V6.84082H18.793C18.9783 7.91546 19.4552 8.8923 20.1445 9.68262C20.957 10.6144 22.0629 11.2977 23.3301 11.5674V11.5684C23.4061 11.5849 23.4833 11.5978 23.5605 11.6113V13.1211C22.3517 12.9557 21.236 12.4962 20.2891 11.8164C19.9846 11.5979 19.5825 11.5683 19.249 11.7393C18.9157 11.9104 18.7063 12.2542 18.7061 12.6289V19.7285C18.7061 22.7239 16.2681 25.158 13.2812 25.1582C11.7204 25.1581 10.3083 24.4912 9.31445 23.4248H9.31348C8.40818 22.4504 7.85742 21.1527 7.85742 19.7285C7.85765 16.8789 10.0622 14.5389 12.8467 14.3232C12.8662 14.3223 12.8886 14.3216 12.9111 14.3203C12.9439 14.3185 12.9821 14.3157 13.0205 14.3135C13.0626 14.3116 13.1051 14.3085 13.1475 14.3076L13.1465 14.3066H13.1494V15.793C11.041 15.863 9.34996 17.5988 9.34961 19.7236C9.34961 20.5852 9.62974 21.3793 10.0967 22.0234L10.9062 21.4365L11.1504 21.2588L10.9014 21.4414L10.0938 22.0303C10.8062 23.006 11.9602 23.6629 13.2812 23.6631C15.402 23.6629 17.1321 21.9732 17.208 19.873C17.2084 19.8613 17.209 19.8487 17.209 19.8369L17.2129 6.84082H18.7676V6.6875C18.7693 6.69945 18.7716 6.71171 18.7734 6.72363Z" fill="#F2F2F3"/>
</svg>
